<?xml version="1.0" encoding="utf-8"?>
<!-- Generator: Adobe Illustrator 17.0.1, SVG Export Plug-In . SVG Version: 6.00 Build 0)  -->
<!DOCTYPE svg PUBLIC "-//W3C//DTD SVG 1.1//EN" "http://www.w3.org/Graphics/SVG/1.1/DTD/svg11.dtd">
<svg version="1.1" id="Layer_1" xmlns="http://www.w3.org/2000/svg" xmlns:xlink="http://www.w3.org/1999/xlink" x="0px" y="0px"
	 width="24px" height="24px" viewBox="119 26.5 24 24" enable-background="new 119 26.5 24 24" xml:space="preserve">
<g>
	<path fill="#FFFFFF" d="M135.836,26.521h-9.692c-3.939,0-7.144,3.205-7.144,7.144v9.692c0,3.939,3.205,7.144,7.144,7.144h9.692
		c3.939,0,7.144-3.205,7.144-7.144v-9.692C142.979,29.725,139.775,26.521,135.836,26.521z M140.567,43.356
		c0,2.613-2.118,4.731-4.731,4.731h-9.692c-2.613,0-4.731-2.118-4.731-4.731v-9.692c0-2.613,2.118-4.731,4.731-4.731h9.692
		c2.613,0,4.731,2.118,4.731,4.731V43.356L140.567,43.356z"/>
	<path fill="#FFFFFF" d="M130.99,32.309c-3.42,0-6.202,2.782-6.202,6.202c0,3.42,2.782,6.202,6.202,6.202
		c3.42,0,6.202-2.782,6.202-6.202C137.191,35.091,134.409,32.309,130.99,32.309z M130.99,42.3c-2.093,0-3.79-1.697-3.79-3.79
		s1.697-3.79,3.79-3.79c2.093,0,3.79,1.697,3.79,3.79C134.779,40.603,133.082,42.3,130.99,42.3z"/>
	<circle fill="#FFFFFF" cx="137.203" cy="32.355" r="1.486"/>
</g>
</svg>
