<?xml version="1.0" encoding="utf-8"?>
<!-- Generator: Adobe Illustrator 17.0.1, SVG Export Plug-In . SVG Version: 6.00 Build 0)  -->
<!DOCTYPE svg PUBLIC "-//W3C//DTD SVG 1.1//EN" "http://www.w3.org/Graphics/SVG/1.1/DTD/svg11.dtd">
<svg version="1.1" id="Layer_1" xmlns="http://www.w3.org/2000/svg" xmlns:xlink="http://www.w3.org/1999/xlink" x="0px" y="0px"
	 width="21px" height="21px" viewBox="120.5 28 21 21" enable-background="new 120.5 28 21 21" xml:space="preserve">
<g>
	<path fill="#FFFFFF" d="M138.427,36.817c0.025-2.952-2.489-5.658-5.605-6.032c-0.062-0.007-0.129-0.019-0.201-0.03
		c-0.154-0.026-0.314-0.052-0.475-0.052c-0.639,0-0.809,0.449-0.854,0.716c-0.044,0.26-0.002,0.479,0.124,0.649
		c0.211,0.288,0.584,0.339,0.882,0.38c0.088,0.012,0.17,0.023,0.239,0.039c2.799,0.625,3.742,1.609,4.202,4.384
		c0.011,0.068,0.016,0.151,0.022,0.24c0.02,0.332,0.062,1.022,0.804,1.022h0c0.062,0,0.128-0.005,0.197-0.016
		c0.691-0.105,0.669-0.736,0.659-1.039c-0.003-0.085-0.006-0.166,0.002-0.22C138.426,36.845,138.427,36.831,138.427,36.817z"/>
	<path fill="#FFFFFF" d="M131.966,29.701c0.083,0.006,0.161,0.012,0.227,0.022c4.597,0.707,6.71,2.885,7.296,7.517
		c0.01,0.079,0.011,0.175,0.013,0.276c0.006,0.362,0.018,1.115,0.826,1.13l0.025,0c0.254,0,0.455-0.076,0.6-0.227
		c0.252-0.263,0.234-0.654,0.22-0.969c-0.003-0.077-0.007-0.15-0.006-0.213c0.058-4.738-4.043-9.034-8.776-9.194
		c-0.02-0.001-0.038,0-0.057,0.003c-0.009,0.001-0.027,0.003-0.056,0.003c-0.047,0-0.105-0.004-0.167-0.008
		c-0.074-0.005-0.159-0.011-0.244-0.011c-0.754,0-0.897,0.536-0.915,0.855C130.908,29.624,131.623,29.676,131.966,29.701z"/>
	<path fill="#FFFFFF" d="M139.267,43.228c-0.098-0.075-0.199-0.152-0.293-0.228c-0.502-0.404-1.036-0.776-1.552-1.136
		c-0.107-0.075-0.214-0.149-0.321-0.224c-0.661-0.465-1.256-0.69-1.818-0.69c-0.757,0-1.416,0.418-1.961,1.243
		c-0.241,0.366-0.534,0.543-0.895,0.543c-0.213,0-0.456-0.061-0.72-0.181c-2.135-0.968-3.66-2.453-4.531-4.412
		c-0.421-0.947-0.285-1.566,0.457-2.07c0.421-0.286,1.205-0.818,1.15-1.837c-0.063-1.157-2.616-4.639-3.692-5.035
		c-0.455-0.168-0.934-0.169-1.425-0.004c-1.237,0.416-2.124,1.146-2.567,2.111c-0.428,0.933-0.408,2.028,0.056,3.168
		c1.342,3.295,3.229,6.167,5.608,8.537c2.329,2.32,5.191,4.221,8.508,5.649c0.299,0.129,0.612,0.199,0.841,0.25
		c0.078,0.018,0.145,0.033,0.194,0.046c0.027,0.007,0.055,0.011,0.083,0.012l0.026,0c0,0,0,0,0,0c1.56,0,3.433-1.425,4.008-3.05
		C140.926,44.496,140.006,43.793,139.267,43.228z"/>
	<path fill="#FFFFFF" d="M132.656,33.465c-0.267,0.007-0.823,0.021-1.018,0.587c-0.091,0.265-0.08,0.494,0.033,0.683
		c0.166,0.276,0.483,0.361,0.771,0.408c1.046,0.168,1.584,0.746,1.691,1.821c0.05,0.501,0.387,0.851,0.82,0.851h0
		c0.032,0,0.065-0.002,0.097-0.006c0.521-0.062,0.773-0.445,0.751-1.137c0.008-0.723-0.37-1.544-1.013-2.197
		C134.142,33.817,133.364,33.448,132.656,33.465z"/>
</g>
</svg>
