<?xml version="1.0" encoding="utf-8"?>
<!-- Generator: Adobe Illustrator 17.0.1, SVG Export Plug-In . SVG Version: 6.00 Build 0)  -->
<!DOCTYPE svg PUBLIC "-//W3C//DTD SVG 1.1//EN" "http://www.w3.org/Graphics/SVG/1.1/DTD/svg11.dtd">
<svg version="1.1" id="Capa_1" xmlns="http://www.w3.org/2000/svg" xmlns:xlink="http://www.w3.org/1999/xlink" x="0px" y="0px"
	 width="22px" height="22px" viewBox="120 27.5 22 22" enable-background="new 120 27.5 22 22" xml:space="preserve">
<path fill="#4CAF50" d="M131.003,27.542h-0.005l0,0c-6.042,0-10.956,4.915-10.956,10.958c0,2.397,0.773,4.619,2.086,6.423
	l-1.366,4.071l4.212-1.347c1.733,1.148,3.8,1.811,6.028,1.811c6.042,0,10.956-4.916,10.956-10.958S137.045,27.542,131.003,27.542z"
	/>
<path fill="#FAFAFA" d="M137.379,43.016c-0.264,0.747-1.314,1.366-2.151,1.546c-0.573,0.122-1.32,0.219-3.838-0.825
	c-3.22-1.334-5.294-4.607-5.456-4.819c-0.155-0.212-1.301-1.733-1.301-3.305s0.799-2.338,1.12-2.667
	c0.264-0.27,0.701-0.393,1.12-0.393c0.136,0,0.258,0.007,0.367,0.012c0.322,0.014,0.484,0.033,0.696,0.541
	c0.264,0.637,0.908,2.209,0.985,2.371c0.078,0.162,0.156,0.381,0.047,0.593c-0.103,0.219-0.193,0.316-0.355,0.503
	c-0.162,0.186-0.315,0.329-0.477,0.529c-0.148,0.174-0.315,0.36-0.129,0.682c0.186,0.315,0.83,1.366,1.778,2.209
	c1.223,1.089,2.215,1.437,2.57,1.585c0.264,0.11,0.579,0.084,0.773-0.122c0.245-0.264,0.548-0.703,0.856-1.134
	c0.219-0.31,0.496-0.348,0.786-0.238c0.296,0.103,1.862,0.877,2.183,1.037c0.322,0.162,0.534,0.238,0.612,0.374
	C137.643,41.631,137.643,42.268,137.379,43.016z"/>
</svg>
