<?xml version="1.0" encoding="utf-8"?>
<!-- Generator: Adobe Illustrator 17.0.1, SVG Export Plug-In . SVG Version: 6.00 Build 0)  -->
<!DOCTYPE svg PUBLIC "-//W3C//DTD SVG 1.1//EN" "http://www.w3.org/Graphics/SVG/1.1/DTD/svg11.dtd">
<svg version="1.1" id="Capa_1" xmlns="http://www.w3.org/2000/svg" xmlns:xlink="http://www.w3.org/1999/xlink" x="0px" y="0px"
	 width="72px" height="69px" viewBox="95 4 72 69" enable-background="new 95 4 72 69" xml:space="preserve">
<g>
	<g>
		<path fill="#108ACF" d="M166.588,45.55l-13.883-36.3c-1.17-3.059-5.101-5.03-8.226-5.169c-0.01,0-0.019,0.001-0.029,0.001
			c-0.011,0-0.022-0.002-0.033-0.002h-8.235c-0.618,0-1.162,0.405-1.34,0.997l-3.868,12.897l-3.868-12.897
			c-0.178-0.592-0.722-0.997-1.34-0.997h-8.235c-0.011,0-0.022,0.002-0.033,0.002c-0.01,0-0.019-0.001-0.029-0.001
			c-3.125,0.139-7.056,2.11-8.226,5.169l-13.883,36.3c-0.285,0.745-0.257,1.554,0.079,2.277c0.336,0.724,0.936,1.267,1.69,1.53
			l6.187,2.158c0.323,0.113,0.652,0.166,0.975,0.166c1.12,0,2.17-0.647,2.656-1.729c0.007-0.015,0.013-0.03,0.019-0.044l1.824-4.465
			c-0.064,1.487-0.109,2.972-0.133,4.455c-0.054,3.22-0.014,6.501,0.12,9.763l0.18,3.55c0,0.001,0,0.001,0,0.002l0.424,8.332
			c0.038,0.744,0.652,1.328,1.397,1.328h40.389c0.745,0,1.359-0.584,1.397-1.328l0.424-8.33c0-0.001,0-0.002,0-0.003l0.18-3.55
			c0-0.004,0-0.009,0.001-0.013c0.134-3.249,0.174-6.529,0.12-9.749c-0.024-1.482-0.069-2.968-0.133-4.455l1.824,4.465
			c0.006,0.015,0.012,0.03,0.019,0.044c0.486,1.082,1.536,1.729,2.656,1.729c0.323,0,0.652-0.054,0.975-0.166l6.187-2.158
			c0.754-0.263,1.354-0.806,1.69-1.53C166.845,47.104,166.874,46.295,166.588,45.55z M132.374,23.048l4.85-16.17h6.44l2.433,3.706
			c0.055,0.084,0.107,0.17,0.155,0.258c0.011,0.021,0.022,0.042,0.033,0.063c0.037,0.069,0.072,0.139,0.105,0.209
			c0.009,0.019,0.017,0.039,0.025,0.058c0.033,0.076,0.065,0.152,0.093,0.229c0.005,0.013,0.009,0.026,0.014,0.039
			c0.031,0.088,0.06,0.176,0.085,0.265c0.001,0.003,0.002,0.006,0.002,0.008c0.188,0.678,0.196,1.394,0.026,2.074
			c-0.007,0.026-0.014,0.052-0.021,0.078c-0.016,0.06-0.034,0.12-0.053,0.18c-0.015,0.045-0.03,0.09-0.046,0.135
			c-0.013,0.037-0.028,0.074-0.042,0.11c-0.024,0.061-0.049,0.121-0.076,0.181c-0.007,0.016-0.015,0.032-0.022,0.047
			c-0.035,0.074-0.071,0.147-0.11,0.219c0,0,0,0.001-0.001,0.001c-0.009,0.017-0.019,0.033-0.028,0.05
			c-0.017,0.03-0.033,0.059-0.05,0.088c-0.021,0.035-0.041,0.069-0.062,0.102c-0.048,0.075-0.097,0.149-0.151,0.222
			c-0.001,0.001-0.001,0.002-0.002,0.003l-13.595,18.404C132.374,33.607,132.374,23.048,132.374,23.048z M133.602,39.744
			c0.579,0,1.049,0.471,1.049,1.049v0.061c0,0.579-0.471,1.049-1.049,1.049h-5.253c-0.579,0-1.049-0.471-1.049-1.049v-0.061
			c0-0.579,0.471-1.049,1.049-1.049H133.602z M115.342,11.714c0.001-0.004,0.002-0.007,0.003-0.011
			c0.025-0.088,0.053-0.175,0.084-0.262c0.005-0.014,0.01-0.028,0.015-0.042c0.028-0.076,0.059-0.15,0.091-0.224
			c0.009-0.021,0.018-0.042,0.027-0.063c0.031-0.068,0.066-0.135,0.101-0.202c0.012-0.023,0.023-0.047,0.036-0.07
			c0.044-0.08,0.092-0.159,0.143-0.237c0.004-0.006,0.008-0.013,0.012-0.02l2.089-3.182l0.344-0.524h6.44l4.849,16.17v10.559
			l-13.595-18.404c0,0-0.001-0.001-0.001-0.001c-0.054-0.073-0.104-0.149-0.153-0.225c-0.02-0.032-0.04-0.066-0.061-0.1
			c-0.02-0.033-0.038-0.066-0.057-0.099c-0.008-0.014-0.015-0.026-0.023-0.04c0,0,0-0.001-0.001-0.001
			c-0.039-0.072-0.075-0.145-0.11-0.218c-0.008-0.017-0.016-0.033-0.023-0.05c-0.027-0.059-0.051-0.12-0.076-0.18
			c-0.015-0.037-0.029-0.074-0.043-0.111c-0.016-0.044-0.031-0.089-0.046-0.134c-0.019-0.06-0.037-0.12-0.054-0.18
			c-0.007-0.026-0.014-0.052-0.021-0.078C115.146,13.107,115.154,12.391,115.342,11.714z M110.335,28.779
			c-0.005,0.026-0.01,0.053-0.014,0.079c-0.08,0.564-0.157,1.13-0.231,1.695c-0.02,0.154-0.04,0.307-0.06,0.461
			c-0.062,0.483-0.123,0.966-0.181,1.45c-0.012,0.097-0.024,0.194-0.036,0.291c-0.062,0.526-0.122,1.053-0.179,1.581
			c-0.025,0.229-0.049,0.458-0.073,0.687c-0.034,0.32-0.066,0.641-0.098,0.961c-0.018,0.185-0.038,0.371-0.056,0.556l-5.014,12.274
			c-0.03,0.053-0.095,0.079-0.154,0.059l-6.187-2.158c-0.034-0.012-0.059-0.034-0.074-0.067c-0.015-0.032-0.016-0.066-0.003-0.099
			l13.883-36.3c0.371-0.97,1.326-1.816,2.457-2.419l-0.799,1.217c-0.071,0.108-0.137,0.218-0.201,0.328
			c-0.016,0.027-0.031,0.054-0.047,0.081c-0.057,0.101-0.111,0.203-0.162,0.307c-0.021,0.042-0.04,0.084-0.06,0.126
			c-0.03,0.064-0.059,0.129-0.087,0.194c-0.044,0.102-0.085,0.205-0.124,0.308c-0.01,0.027-0.021,0.055-0.031,0.082
			c-0.47,1.297-0.536,2.703-0.189,4.037c0.003,0.011,0.006,0.022,0.009,0.033c0.032,0.119,0.066,0.238,0.104,0.356
			c0.025,0.077,0.051,0.154,0.079,0.231c0.011,0.031,0.022,0.062,0.033,0.093c0.047,0.124,0.098,0.247,0.152,0.369
			c0.001,0.002,0.002,0.004,0.003,0.006L110.335,28.779z M111.574,59.532c-0.025-0.618-0.046-1.238-0.065-1.858
			c-0.003-0.105-0.007-0.21-0.01-0.315c-0.017-0.59-0.03-1.181-0.04-1.771c-0.002-0.122-0.004-0.244-0.006-0.366
			c-0.009-0.596-0.016-1.192-0.018-1.787c0-0.079,0-0.158,0-0.236c-0.002-0.567-0.001-1.132,0.004-1.696
			c0-0.061,0.001-0.122,0.001-0.182h6.854v2.484c0,3.925-2.864,7.194-6.613,7.826L111.574,59.532z M149.84,70.074h-37.73l0,0
			l-0.287-5.639c5.227-0.718,9.267-5.21,9.267-10.631v-3.883c0-0.772-0.626-1.399-1.399-1.399h-8.206
			c0.1-4.004,0.348-8.028,0.739-12.032c0.035-0.356,0.07-0.711,0.108-1.068c0.023-0.22,0.046-0.44,0.07-0.66
			c0.054-0.493,0.108-0.987,0.166-1.48c0.01-0.082,0.019-0.164,0.029-0.247c0.064-0.534,0.13-1.067,0.199-1.599
			c0.019-0.147,0.038-0.294,0.057-0.441c0.075-0.569,0.151-1.138,0.232-1.703l2.107-10.448l13.372,18.101h-0.217
			c-2.121,0-3.846,1.726-3.846,3.846v0.061c0,2.121,1.726,3.846,3.846,3.846h1.228v3.58h-1.228c-2.121,0-3.846,1.726-3.846,3.846
			v0.061c0,2.121,1.726,3.846,3.846,3.846h1.228v5.53c0,0.772,0.626,1.399,1.399,1.399s1.399-0.626,1.399-1.399v-5.53h1.228
			c2.121,0,3.846-1.726,3.846-3.846v-0.061c0-2.121-1.726-3.846-3.846-3.846h-1.228V44.7h1.228c2.121,0,3.846-1.726,3.846-3.846
			v-0.061c0-2.121-1.726-3.846-3.846-3.846h-0.217l13.372-18.101l2.107,10.448c0.08,0.566,0.157,1.134,0.232,1.703
			c0.019,0.147,0.038,0.294,0.057,0.441c0.069,0.532,0.135,1.065,0.199,1.599c0.01,0.082,0.019,0.164,0.029,0.247
			c0.058,0.493,0.113,0.987,0.166,1.48c0.024,0.22,0.047,0.44,0.07,0.66c0.037,0.356,0.073,0.712,0.107,1.068
			c0.391,4.005,0.639,8.028,0.739,12.032h-8.206c-0.772,0-1.399,0.626-1.399,1.399v3.883c0,5.421,4.04,9.913,9.267,10.631
			L149.84,70.074z M133.602,51.077c0.579,0,1.049,0.471,1.049,1.049v0.061c0,0.579-0.471,1.049-1.049,1.049h-5.253
			c-0.579,0-1.049-0.471-1.049-1.049v-0.061c0-0.579,0.471-1.049,1.049-1.049H133.602z M150.516,53.424
			c-0.003,0.605-0.009,1.211-0.019,1.818c-0.002,0.108-0.003,0.216-0.005,0.324c-0.01,0.602-0.024,1.203-0.041,1.805
			c-0.003,0.092-0.006,0.183-0.008,0.275c-0.019,0.626-0.04,1.252-0.066,1.876l-0.107,2.109c-3.748-0.632-6.612-3.901-6.612-7.826
			V51.32h6.854v0c0.001,0.06,0.001,0.121,0.001,0.181c0.004,0.571,0.005,1.144,0.004,1.717
			C150.516,53.288,150.516,53.356,150.516,53.424z M163.972,46.649c-0.015,0.032-0.04,0.055-0.074,0.067l-6.187,2.158
			c-0.058,0.021-0.124-0.005-0.154-0.059l-5.014-12.274c-0.017-0.182-0.037-0.364-0.056-0.546c-0.032-0.326-0.065-0.652-0.1-0.978
			c-0.024-0.225-0.047-0.45-0.072-0.675c-0.058-0.53-0.117-1.06-0.18-1.589c-0.011-0.093-0.023-0.186-0.034-0.279
			c-0.059-0.488-0.12-0.975-0.183-1.462c-0.02-0.152-0.039-0.304-0.059-0.456c-0.075-0.567-0.151-1.132-0.232-1.697
			c-0.004-0.027-0.008-0.053-0.014-0.079l-2.658-13.18c0.001-0.002,0.001-0.004,0.002-0.005c0.054-0.122,0.106-0.246,0.153-0.37
			c0.011-0.03,0.022-0.061,0.033-0.091c0.028-0.077,0.054-0.155,0.079-0.233c0.038-0.117,0.072-0.235,0.103-0.353
			c0.003-0.012,0.007-0.024,0.01-0.036c0.347-1.335,0.281-2.741-0.19-4.038c-0.009-0.024-0.018-0.049-0.028-0.073
			c-0.04-0.107-0.083-0.214-0.129-0.319c-0.027-0.063-0.055-0.125-0.084-0.187c-0.021-0.044-0.041-0.088-0.063-0.132
			c-0.05-0.102-0.104-0.203-0.16-0.302c-0.016-0.029-0.033-0.058-0.05-0.086c-0.062-0.107-0.126-0.213-0.194-0.317
			c-0.002-0.003-0.003-0.005-0.005-0.008l-0.799-1.217c1.132,0.603,2.086,1.449,2.457,2.419l13.883,36.3v0
			C163.989,46.584,163.987,46.617,163.972,46.649z"/>
	</g>
</g>
<g>
	<g>
		<path fill="#108ACF" d="M132.347,66.256c-0.018-0.089-0.046-0.178-0.081-0.261c-0.035-0.084-0.078-0.165-0.129-0.241
			c-0.05-0.077-0.109-0.148-0.173-0.213c-0.064-0.066-0.136-0.123-0.213-0.175c-0.076-0.05-0.157-0.094-0.241-0.129
			c-0.085-0.035-0.173-0.062-0.263-0.08c-0.18-0.036-0.365-0.036-0.546,0c-0.09,0.018-0.178,0.045-0.262,0.08
			c-0.085,0.035-0.166,0.078-0.242,0.129c-0.077,0.052-0.148,0.109-0.213,0.175c-0.064,0.064-0.123,0.136-0.173,0.213
			c-0.052,0.076-0.094,0.157-0.129,0.241c-0.035,0.084-0.063,0.172-0.08,0.261c-0.018,0.091-0.028,0.182-0.028,0.274
			c0,0.091,0.01,0.182,0.028,0.273c0.017,0.09,0.045,0.178,0.08,0.262c0.035,0.084,0.078,0.165,0.129,0.242
			c0.05,0.076,0.109,0.148,0.173,0.213c0.064,0.064,0.136,0.123,0.213,0.173c0.076,0.05,0.157,0.094,0.242,0.129
			c0.084,0.035,0.172,0.062,0.262,0.08c0.09,0.018,0.182,0.028,0.273,0.028c0.091,0,0.183-0.01,0.273-0.028
			c0.09-0.018,0.178-0.045,0.263-0.08c0.084-0.035,0.165-0.078,0.241-0.129c0.077-0.05,0.148-0.109,0.213-0.173
			c0.064-0.064,0.123-0.137,0.173-0.213c0.05-0.077,0.094-0.158,0.129-0.242c0.035-0.084,0.063-0.172,0.08-0.262
			c0.02-0.091,0.028-0.182,0.028-0.273C132.374,66.438,132.365,66.347,132.347,66.256z"/>
	</g>
</g>
</svg>
