<?xml version="1.0" encoding="utf-8"?>
<!-- Generator: Adobe Illustrator 17.0.1, SVG Export Plug-In . SVG Version: 6.00 Build 0)  -->
<!DOCTYPE svg PUBLIC "-//W3C//DTD SVG 1.1//EN" "http://www.w3.org/Graphics/SVG/1.1/DTD/svg11.dtd">
<svg version="1.1" id="Layer_1" xmlns="http://www.w3.org/2000/svg" xmlns:xlink="http://www.w3.org/1999/xlink" x="0px" y="0px"
	 width="57px" height="67px" viewBox="102.5 5 57 67" enable-background="new 102.5 5 57 67" xml:space="preserve">
<g>
	<g>
		<g>
			<path fill="#108ACF" d="M158.012,36.55c0.584,0,1.057-0.473,1.057-1.057V20.236c0-0.076-0.003-0.15-0.008-0.223
				c-0.133-3.193-3.06-6.066-8.698-8.539c-3.491-1.531-6.907-2.416-7.826-2.641l-4.574-3.607c-0.001,0-0.001-0.001-0.002-0.001
				c-0.043-0.034-0.088-0.062-0.134-0.088c-0.007-0.004-0.013-0.008-0.019-0.011c-0.046-0.025-0.094-0.045-0.142-0.063
				c-0.008-0.003-0.015-0.005-0.023-0.008c-0.049-0.016-0.099-0.029-0.15-0.038c-0.007-0.001-0.015-0.002-0.022-0.003
				c-0.052-0.008-0.105-0.013-0.157-0.013c-0.002,0-0.004,0-0.006,0h-12.616c-0.002,0-0.004,0.001-0.007,0.001
				c-0.052,0-0.104,0.005-0.155,0.013c-0.008,0.001-0.016,0.002-0.024,0.004c-0.05,0.009-0.1,0.022-0.149,0.038
				c-0.008,0.003-0.016,0.005-0.023,0.008c-0.048,0.018-0.096,0.038-0.142,0.063c-0.006,0.003-0.012,0.007-0.019,0.011
				c-0.047,0.026-0.092,0.056-0.136,0.09l-4.581,3.613c-0.903,0.238-4.331,1.187-7.834,2.788c-3.299,1.508-5.667,3.136-7.09,4.866
				c-0.018,0.02-0.035,0.04-0.051,0.061c-0.972,1.203-1.488,2.455-1.542,3.751c-0.005,0.073-0.008,0.147-0.008,0.223v34.14v5.583
				c0,0.477,0.32,0.895,0.78,1.02l7.225,1.96v1.159c0,0,0,0,0,0.001l0,1.741c0,0.584,0.473,1.057,1.057,1.057h0.952v3.593v0.088
				c0,0.584,0.473,1.057,1.057,1.057h0h33.995h0c0.584,0,1.057-0.473,1.057-1.057v-3.681h0.952c0.584,0,1.057-0.473,1.057-1.057
				v-1.703v-1.198l7.225-1.96c0.461-0.125,0.78-0.543,0.78-1.02V54.67V38.943c0-0.584-0.473-1.057-1.057-1.057
				c-0.584,0-1.057,0.473-1.057,1.057v14.911l-5.891,1.539V27.358c0-0.017-0.001-0.038-0.002-0.056
				c-0.012-0.252-0.225-5.966,5.432-8.785c0.273,0.513,0.434,1.045,0.455,1.594c0,0.011,0.001,0.023,0.002,0.034
				c0.002,0.029,0.003,0.059,0.003,0.09v15.257C156.955,36.077,157.428,36.55,158.012,36.55z M151.063,57.577l5.891-1.539v3.407
				l-5.891,1.599V57.577z M137.452,7.516l3.02,2.381l-8.146,8.06C133.225,13.157,136.155,9.117,137.452,7.516z M135.077,7.114
				c-1.236,1.652-2.974,4.337-4.077,7.586c-1.103-3.249-2.841-5.934-4.077-7.586C126.923,7.114,135.077,7.114,135.077,7.114z
				 M124.548,7.516c1.298,1.602,4.227,5.642,5.127,10.441l-8.146-8.06L124.548,7.516z M111.084,61.083l-6.039-1.639v-3.413
				l6.039,1.548V61.083z M111.086,27.298c-0.001,0.02-0.002,0.04-0.002,0.059v28.04l-6.039-1.548v-33.32
				c0-0.031,0.001-0.061,0.004-0.09c0.001-0.011,0.001-0.023,0.002-0.034c0.025-0.648,0.245-1.276,0.614-1.882
				C111.31,21.343,111.098,27.05,111.086,27.298z M117.75,69.726h-2.691v-2.448h2.691C117.75,67.278,117.75,69.726,117.75,69.726z
				 M142.115,69.814h-22.252V67.19h1.581c0.584,0,1.057-0.473,1.057-1.057s-0.473-1.057-1.057-1.057h-7.442h-0.804V64.5
				c0.002-0.023,0.004-0.046,0.004-0.069v-7.67c0-0.016-0.003-0.031-0.004-0.047V27.381c0.011-0.288,0.048-2.144-0.768-4.343
				c-0.71-1.914-2.209-4.43-5.355-6.162c3.173-2.871,9.287-5.018,12.545-5.895l10.324,10.215v43.881h-5.195
				c-0.584,0-1.057,0.473-1.057,1.057s0.473,1.057,1.057,1.057h17.367L142.115,69.814L142.115,69.814z M146.92,69.726h-2.691v-2.448
				h2.691V69.726z M149.718,23.038c-0.816,2.2-0.78,4.056-0.768,4.343v37.695h-0.952h0h0h-15.941V21.196l10.332-10.223
				c3.332,0.832,9.667,2.941,12.766,5.86C151.954,18.566,150.435,21.108,149.718,23.038z"/>
			<path fill="#108ACF" d="M134.944,23.908h-0.202c-0.584,0-1.057,0.473-1.057,1.057c0,0.584,0.473,1.057,1.057,1.057h0.202
				c0.584,0,1.057-0.473,1.057-1.057C136,24.381,135.527,23.908,134.944,23.908z"/>
			<path fill="#108ACF" d="M134.944,31.627h-0.202c-0.584,0-1.057,0.473-1.057,1.057c0,0.584,0.473,1.057,1.057,1.057h0.202
				c0.584,0,1.057-0.473,1.057-1.057C136,32.1,135.527,31.627,134.944,31.627z"/>
			<path fill="#108ACF" d="M134.944,39.345h-0.202c-0.584,0-1.057,0.473-1.057,1.057c0,0.584,0.473,1.057,1.057,1.057h0.202
				c0.584,0,1.057-0.473,1.057-1.057C136,39.818,135.527,39.345,134.944,39.345z"/>
			<path fill="#108ACF" d="M134.944,54.782h-0.202c-0.584,0-1.057,0.473-1.057,1.057s0.473,1.057,1.057,1.057h0.202
				c0.584,0,1.057-0.473,1.057-1.057S135.527,54.782,134.944,54.782z"/>
			<path fill="#108ACF" d="M134.944,47.064h-0.202c-0.584,0-1.057,0.473-1.057,1.057c0,0.584,0.473,1.057,1.057,1.057h0.202
				c0.584,0,1.057-0.473,1.057-1.057C136,47.537,135.527,47.064,134.944,47.064z"/>
			<path fill="#108ACF" d="M139.443,49.469c-0.483,0.327-0.61,0.984-0.283,1.467l4.766,7.045c0.204,0.302,0.537,0.465,0.876,0.465
				c0.204,0,0.41-0.059,0.591-0.182c0.483-0.327,0.61-0.984,0.283-1.467l-4.766-7.045C140.584,49.268,139.927,49.142,139.443,49.469
				z"/>
			<path fill="#108ACF" d="M122.557,49.469c-0.484-0.327-1.14-0.2-1.467,0.283l-4.766,7.045c-0.327,0.483-0.2,1.14,0.283,1.467
				c0.181,0.123,0.387,0.182,0.591,0.182c0.339,0,0.672-0.163,0.876-0.465l4.766-7.045C123.167,50.453,123.04,49.796,122.557,49.469
				z"/>
		</g>
	</g>
</g>
</svg>
