<?xml version="1.0" encoding="utf-8"?>
<!-- Generator: Adobe Illustrator 17.0.1, SVG Export Plug-In . SVG Version: 6.00 Build 0)  -->
<!DOCTYPE svg PUBLIC "-//W3C//DTD SVG 1.1//EN" "http://www.w3.org/Graphics/SVG/1.1/DTD/svg11.dtd">
<svg version="1.1" id="Capa_1" xmlns="http://www.w3.org/2000/svg" xmlns:xlink="http://www.w3.org/1999/xlink" x="0px" y="0px"
	 width="62px" height="62px" viewBox="100 7.5 62 62" enable-background="new 100 7.5 62 62" xml:space="preserve">
<g>
	<g>
		<g>
			<path fill="#108ACF" d="M119.024,30.66v-3.139c0-0.551-0.446-0.997-0.997-0.997h-0.997V21.54c0-0.551-0.446-0.997-0.997-0.997
				h-3.988c-0.551,0-0.997,0.446-0.997,0.997v4.984h-0.997c-0.551,0-0.997,0.446-0.997,0.997v3.181
				c-5.194,0.965-8.964,5.493-8.972,10.775v23.925c0,2.202,1.785,3.988,3.988,3.988h23.925c2.202,0,3.988-1.785,3.988-3.988V45.465
				C131.971,37.985,126.437,31.663,119.024,30.66z M113.043,22.537h1.994v3.988h-1.994V22.537z M111.049,28.518h5.981v1.994h-5.981
				V28.518z M129.99,65.403c0,1.101-0.893,1.994-1.994,1.994h-23.925c-1.101,0-1.994-0.893-1.994-1.994V41.478
				c0.006-4.953,4.019-8.966,8.972-8.972h5.981c7.154,0.008,12.951,5.806,12.96,12.96V65.403z"/>
			<path fill="#108ACF" d="M114.04,50.45V35.496c0-0.551-0.446-0.997-0.997-0.997h-1.994c-3.852,0.004-6.974,3.126-6.978,6.978
				v13.956c0,0.551,0.446,0.997,0.997,0.997h2.991c0.264,0,0.518-0.105,0.705-0.292l4.984-4.984
				C113.935,50.968,114.04,50.714,114.04,50.45z M112.046,50.037l-4.4,4.4h-1.581v-12.96c0.003-2.751,2.233-4.981,4.984-4.984h0.997
				V50.037z"/>
			<path fill="#108ACF" d="M117.03,34.499v1.994c4.953,0.005,8.967,4.019,8.972,8.972h1.994
				C127.989,39.412,123.084,34.507,117.03,34.499z"/>
			<path fill="#108ACF" d="M118.027,55.434c-2.753,0-4.984,2.232-4.984,4.984s2.232,4.984,4.984,4.984
				c2.753,0,4.984-2.232,4.984-4.984C123.009,57.667,120.779,55.437,118.027,55.434z M118.027,63.409
				c-1.652,0-2.991-1.339-2.991-2.991s1.339-2.991,2.991-2.991s2.991,1.339,2.991,2.991S119.679,63.409,118.027,63.409z"/>
			<path fill="#108ACF" d="M123.012,48.456c-1.652,0-2.991,1.339-2.991,2.991s1.339,2.991,2.991,2.991s2.991-1.339,2.991-2.991
				S124.664,48.456,123.012,48.456z M123.012,52.443c-0.551,0-0.997-0.446-0.997-0.997s0.446-0.997,0.997-0.997
				c0.551,0,0.997,0.446,0.997,0.997S123.562,52.443,123.012,52.443z"/>
			<path fill="#108ACF" d="M152.919,7.583c-0.082,0-0.163,0.01-0.242,0.03l-6.28,1.57c-0.953,0.238-1.949,0.238-2.902,0l-6.28-1.57
				c-0.08-0.02-0.163-0.03-0.245-0.03h-3.988c-4.947,0-8.972,5.814-8.972,12.96s4.025,12.96,8.972,12.96h3.988
				c1.04-0.004,2.065-0.254,2.991-0.729v0.912c-0.319-0.118-0.656-0.18-0.997-0.183c-1.652,0-2.991,1.339-2.991,2.991v10.966
				c0,0.264,0.105,0.518,0.292,0.705l3.695,3.695v3.575c0,0.551,0.446,0.997,0.997,0.997h11.963c0.551,0,0.997-0.446,0.997-0.997
				v-3.575l3.695-3.695c0.187-0.187,0.292-0.44,0.292-0.705V30.927c2.497-2.361,3.988-6.265,3.988-10.594
				C161.891,13.303,157.865,7.583,152.919,7.583z M126.003,20.543c0-5.576,2.664-10.182,6.095-10.866
				c-2.464,2.311-4.101,6.314-4.101,10.866s1.637,8.555,4.101,10.866C128.666,30.725,126.003,26.119,126.003,20.543z
				 M151.922,54.437h-9.969v-1.994h9.969V54.437z M155.909,47.046l-3.403,3.403h-11.137l-3.403-3.403V36.493
				c0-0.551,0.446-0.997,0.997-0.997s0.997,0.446,0.997,0.997v2.991h1.994V25.527c0-0.551,0.446-0.997,0.997-0.997
				c0.551,0,0.997,0.446,0.997,0.997v9.969h1.994V21.54c0-0.551,0.446-0.997,0.997-0.997c0.551,0,0.997,0.446,0.997,0.997v13.956
				h1.994V23.534c0-0.551,0.446-0.997,0.997-0.997c0.551,0,0.997,0.446,0.997,0.997v11.963h1.994v-7.975
				c0-0.551,0.446-0.997,0.997-0.997s0.997,0.446,0.997,0.997V47.046z M157.903,27.802v-0.281c0-1.652-1.339-2.991-2.991-2.991
				c-0.34,0.003-0.678,0.065-0.997,0.183v-1.18c0.006-1.646-1.324-2.985-2.971-2.991c-0.388-0.001-0.773,0.073-1.133,0.219
				c-0.427-1.592-2.063-2.536-3.654-2.11c-1.306,0.35-2.214,1.535-2.211,2.887v1.18c-0.319-0.118-0.656-0.18-0.997-0.183
				c-1.652,0-2.991,1.339-2.991,2.991v4.885c-0.849,0.684-1.9,1.069-2.991,1.097c-3.848,0-6.978-4.92-6.978-10.966
				c0-5.981,3.067-10.866,6.862-10.966l6.158,1.541c1.27,0.315,2.598,0.315,3.868,0l6.158-1.541c3.794,0.1,6.862,4.885,6.862,10.755
				C159.937,22.959,159.246,25.545,157.903,27.802z"/>
			<rect x="135.971" y="11.571" fill="#108ACF" width="1.994" height="1.994"/>
			<rect x="135.971" y="19.546" fill="#108ACF" width="1.994" height="1.994"/>
			<rect x="139.959" y="15.558" fill="#108ACF" width="1.994" height="1.994"/>
			<rect x="150.925" y="11.571" fill="#108ACF" width="1.994" height="1.994"/>
			<rect x="154.912" y="15.558" fill="#108ACF" width="1.994" height="1.994"/>
			<rect x="132.981" y="23.534" fill="#108ACF" width="1.994" height="1.994"/>
			<path fill="#108ACF" d="M111.049,18.549c2.202,0,3.988-1.785,3.988-3.988s-1.785-3.988-3.988-3.988
				c-2.202,0-3.988,1.785-3.988,3.988S108.847,18.549,111.049,18.549z M111.049,12.568c1.101,0,1.994,0.893,1.994,1.994
				s-0.893,1.994-1.994,1.994c-1.101,0-1.994-0.893-1.994-1.994S109.948,12.568,111.049,12.568z"/>
			<path fill="#108ACF" d="M120.021,15.558c1.652,0,2.991-1.339,2.991-2.991s-1.339-2.991-2.991-2.991s-2.991,1.339-2.991,2.991
				S118.369,15.558,120.021,15.558z M120.021,11.571c0.551,0,0.997,0.446,0.997,0.997c0,0.551-0.446,0.997-0.997,0.997
				c-0.551,0-0.997-0.446-0.997-0.997C119.024,12.017,119.471,11.571,120.021,11.571z"/>
		</g>
	</g>
</g>
</svg>
