<?xml version="1.0" encoding="utf-8"?>
<!-- Generator: Adobe Illustrator 17.0.1, SVG Export Plug-In . SVG Version: 6.00 Build 0)  -->
<!DOCTYPE svg PUBLIC "-//W3C//DTD SVG 1.1//EN" "http://www.w3.org/Graphics/SVG/1.1/DTD/svg11.dtd">
<svg version="1.1" id="Layer_1" xmlns="http://www.w3.org/2000/svg" xmlns:xlink="http://www.w3.org/1999/xlink" x="0px" y="0px"
	 width="57px" height="67px" viewBox="102.5 5 57 67" enable-background="new 102.5 5 57 67" xml:space="preserve">
<g>
	<g>
		<path fill="#108ACF" d="M157.951,36.666c0.582,0,1.054-0.472,1.054-1.054V20.389c0-0.076-0.003-0.15-0.008-0.223
			c-0.133-3.186-3.053-6.052-8.678-8.519c-3.371-1.478-6.671-2.352-7.712-2.611l-3.121-3.497c-0.196-0.22-0.475-0.346-0.769-0.351
			c-0.002,0-0.003,0-0.004,0c-0.001,0-0.001,0-0.002,0c-0.004,0-0.007-0.001-0.011-0.001h-15.4c-0.005,0-0.01,0.001-0.015,0.001
			c-0.006,0-0.011,0-0.017,0c-0.014,0-0.027,0.002-0.04,0.003c-0.018,0.001-0.036,0.002-0.054,0.004
			c-0.019,0.002-0.038,0.006-0.056,0.009c-0.017,0.003-0.034,0.006-0.051,0.009c-0.019,0.004-0.037,0.01-0.056,0.015
			c-0.016,0.005-0.033,0.009-0.049,0.014c-0.019,0.006-0.037,0.014-0.055,0.021c-0.015,0.006-0.031,0.012-0.046,0.019
			c-0.018,0.008-0.036,0.018-0.053,0.027c-0.014,0.007-0.029,0.014-0.043,0.023c-0.018,0.011-0.035,0.022-0.052,0.034
			c-0.013,0.009-0.026,0.016-0.038,0.026c-0.018,0.014-0.036,0.029-0.053,0.043c-0.01,0.009-0.021,0.017-0.031,0.026
			c-0.027,0.025-0.053,0.05-0.077,0.078l-3.127,3.504c-1.028,0.274-4.339,1.211-7.72,2.756c-3.185,1.456-5.5,3.022-6.932,4.686
			c-0.176,0.118-0.315,0.287-0.395,0.491c-0.839,1.12-1.286,2.282-1.336,3.482c-0.005,0.073-0.008,0.147-0.008,0.223v37.104
			c0,0.476,0.319,0.893,0.778,1.018l1.69,0.459v4.242c0,0.485,0.33,0.907,0.801,1.023l5.211,1.292
			c0.002,0.004,0.005,0.007,0.007,0.011c0.034,0.06,0.069,0.119,0.107,0.176c0.015,0.023,0.031,0.044,0.047,0.067
			c0.032,0.045,0.064,0.089,0.099,0.132c0.018,0.023,0.037,0.046,0.056,0.068c0.035,0.041,0.072,0.081,0.11,0.121
			c0.019,0.02,0.038,0.04,0.058,0.06c0.045,0.044,0.092,0.086,0.14,0.127c0.014,0.012,0.027,0.025,0.041,0.036
			c0.063,0.052,0.128,0.1,0.195,0.146c0.016,0.011,0.032,0.02,0.048,0.03c0.052,0.034,0.106,0.067,0.161,0.098
			c0.025,0.014,0.05,0.026,0.074,0.039c0.049,0.025,0.098,0.049,0.148,0.072c0.027,0.012,0.054,0.024,0.082,0.035
			c0.052,0.021,0.105,0.04,0.159,0.058c0.026,0.009,0.051,0.018,0.076,0.025c0.011,0.003,0.021,0.007,0.032,0.011l0.022,0.145
			l0.564,3.79c0.077,0.517,0.52,0.899,1.043,0.899h0h5.32h22.024h5.168h0c0.522,0,0.966-0.383,1.043-0.899l0.579-3.894
			c0.058-0.013,0.115-0.03,0.172-0.046c0.016-0.005,0.031-0.008,0.047-0.013c0.081-0.025,0.16-0.054,0.237-0.087
			c0.02-0.008,0.04-0.019,0.059-0.028c0.056-0.025,0.112-0.051,0.166-0.08c0.026-0.014,0.052-0.029,0.078-0.044
			c0.046-0.027,0.092-0.054,0.137-0.083c0.027-0.018,0.053-0.036,0.079-0.054c0.042-0.03,0.083-0.061,0.124-0.093
			c0.025-0.02,0.05-0.04,0.074-0.06c0.04-0.034,0.079-0.07,0.118-0.107c0.022-0.02,0.043-0.04,0.064-0.062
			c0.042-0.043,0.082-0.088,0.122-0.134c0.014-0.017,0.03-0.033,0.044-0.05c0.052-0.064,0.102-0.13,0.148-0.199
			c0.008-0.012,0.015-0.025,0.023-0.038c0.037-0.057,0.073-0.114,0.106-0.174c0,0,0-0.001,0.001-0.001l5.211-1.292
			c0.47-0.117,0.801-0.539,0.801-1.023v-4.283l1.538-0.417c0.459-0.125,0.778-0.542,0.778-1.018V39.054
			c0-0.582-0.472-1.054-1.054-1.054s-1.054,0.472-1.054,1.054v17.925l-5.971,1.62c-0.096-0.366-0.265-0.703-0.493-0.993
			c0.365-0.466,0.585-1.051,0.585-1.687v-5.203c0-0.636-0.22-1.221-0.585-1.687c0.365-0.466,0.585-1.051,0.585-1.687v-5.203
			c0-0.636-0.22-1.221-0.585-1.687c0.365-0.466,0.585-1.051,0.585-1.687v-5.203c0-0.636-0.22-1.221-0.585-1.687
			c0.365-0.466,0.585-1.051,0.585-1.687v-4.641c0-5.123,3.817-6.619,5.342-7.012c0.319,0.555,0.507,1.133,0.531,1.731
			c0,0.011,0.001,0.023,0.002,0.034c0.002,0.029,0.004,0.059,0.004,0.09v15.223C156.896,36.194,157.368,36.666,157.951,36.666z
			 M151.018,60.759l3.561-0.966v2.886l-3.561,0.883V60.759z M140.568,9.94l-8.513,8.438v-4.074l0,0l6.58-6.53L140.568,9.94z
			 M121.91,9.383l1.437-1.61l6.58,6.53v4.074l-8.513-8.438L121.91,9.383z M111.133,63.562l-3.561-0.883v-2.845l3.41,0.925v1.62
			c0,0.2,0.056,0.386,0.152,0.545V63.562z M111.718,40.452c-0.365,0.466-0.585,1.051-0.585,1.687v5.203
			c0,0.636,0.22,1.221,0.585,1.687c-0.365,0.466-0.585,1.051-0.585,1.687v5.203c0,0.636,0.22,1.221,0.585,1.687
			c-0.235,0.3-0.408,0.65-0.502,1.031l-4.159-1.129c-0.158-0.094-0.342-0.149-0.539-0.149c-0.003,0-0.006,0-0.01,0l-1.404-0.381
			V20.681h0c0-0.031,0.002-0.061,0.004-0.091c0.001-0.011,0.001-0.023,0.002-0.034c0.027-0.697,0.279-1.371,0.701-2.018
			c1.538,0.401,5.324,1.906,5.324,7.008v4.641c0,0.636,0.22,1.221,0.585,1.687c-0.365,0.466-0.585,1.051-0.585,1.687v5.203
			C111.133,39.401,111.353,39.986,111.718,40.452z M112.807,22.459c-0.714-2.339-2.184-3.776-3.475-4.627
			c-0.686-0.452-1.371-0.773-1.971-1c3.224-2.761,9.11-4.822,12.283-5.676l10.301,10.21v0.877h-16.071
			C113.496,22.243,113.136,22.32,112.807,22.459z M113.875,47.974c-0.349,0-0.633-0.284-0.633-0.633v-5.203
			c0-0.349,0.284-0.633,0.633-0.633h16.071v6.469L113.875,47.974L113.875,47.974z M129.946,50.083v6.468h-16.071
			c-0.349,0-0.633-0.284-0.633-0.633v-5.203c0-0.349,0.284-0.632,0.633-0.632H129.946z M113.875,39.397
			c-0.349,0-0.633-0.284-0.633-0.633v-5.203c0-0.349,0.284-0.633,0.633-0.633h16.071v6.469L113.875,39.397L113.875,39.397z
			 M113.875,30.82c-0.349,0-0.633-0.284-0.633-0.633v-5.203c0-0.349,0.284-0.633,0.633-0.633h16.071v6.469L113.875,30.82
			L113.875,30.82z M119.009,69.856h-3.357l-0.389-2.618h3.746V69.856z M120.064,65.129h-6.023h-0.166
			c-0.349,0-0.633-0.284-0.633-0.633v-2.117v-3.086c0-0.349,0.284-0.633,0.633-0.633h16.071v6.469h-5.183h-3.296L120.064,65.129
			L120.064,65.129z M130.021,69.856h-8.903v-2.618h0.348h3.296h5.259V69.856z M125.86,7.296h10.262l-5.131,5.092L125.86,7.296z
			 M141.034,69.856h-8.903v-2.618h8.903V69.856z M146.347,69.856h-3.205v-2.618h3.594L146.347,69.856z M148.91,59.952v4.544
			c0,0.349-0.284,0.633-0.633,0.633h-0.318h-5.871h-9.958v-0.22c0-0.138-0.027-0.27-0.076-0.391V58.66h16.223
			c0.349,0,0.633,0.284,0.633,0.633L148.91,59.952L148.91,59.952z M148.91,55.919c0,0.349-0.284,0.633-0.633,0.633h-16.223v-6.468
			h16.223c0.349,0,0.633,0.284,0.633,0.632L148.91,55.919L148.91,55.919z M148.91,47.342c0,0.349-0.284,0.633-0.633,0.633h-16.223
			v-6.469h16.223c0.349,0,0.633,0.284,0.633,0.633L148.91,47.342L148.91,47.342z M148.91,38.764c0,0.349-0.284,0.633-0.633,0.633
			h-16.223v-6.469h16.223c0.349,0,0.633,0.284,0.633,0.633L148.91,38.764L148.91,38.764z M148.91,30.187
			c0,0.349-0.284,0.633-0.633,0.633h-16.223v-6.469h16.223c0.349,0,0.633,0.284,0.633,0.633L148.91,30.187L148.91,30.187z
			 M152.819,17.832c-1.291,0.851-2.761,2.288-3.475,4.627c-0.328-0.139-0.689-0.217-1.067-0.217h-16.223v-0.896l10.295-10.203
			c3.245,0.809,9.369,2.839,12.536,5.653C154.263,17.025,153.541,17.356,152.819,17.832z"/>
	</g>
</g>
</svg>
