<?xml version="1.0" encoding="utf-8"?>
<!-- Generator: Adobe Illustrator 17.0.1, SVG Export Plug-In . SVG Version: 6.00 Build 0)  -->
<!DOCTYPE svg PUBLIC "-//W3C//DTD SVG 1.1//EN" "http://www.w3.org/Graphics/SVG/1.1/DTD/svg11.dtd">
<svg version="1.1" id="Capa_1" xmlns="http://www.w3.org/2000/svg" xmlns:xlink="http://www.w3.org/1999/xlink" x="0px" y="0px"
	 width="68px" height="68px" viewBox="97 4.5 68 68" enable-background="new 97 4.5 68 68" xml:space="preserve">
<g>
	<g>
		<g>
			<path fill="#108ACF" d="M164.596,28.961l-10.944-10.944c-0.157-0.157-0.359-0.262-0.578-0.302l-12.039-2.189
				c-0.595-0.108-1.164,0.286-1.273,0.881c-0.012,0.064-0.018,0.13-0.018,0.195c-0.003,0.348-0.034,0.695-0.093,1.038l-7.568-1.891
				v-0.35c2.961-0.604,4.872-3.495,4.267-6.456c-0.604-2.961-3.495-4.872-6.456-4.267c-2.547,0.52-4.377,2.761-4.378,5.36h2.189
				c0-1.813,1.47-3.283,3.283-3.283c1.813,0,3.283,1.47,3.283,3.283s-1.47,3.283-3.283,3.283c-0.604,0-1.094,0.49-1.094,1.094v1.334
				l-7.568,1.892c-0.059-0.343-0.09-0.69-0.093-1.038c0-0.325-0.144-0.632-0.393-0.841c-0.248-0.211-0.578-0.298-0.897-0.235
				l-12.039,2.189c-0.219,0.04-0.42,0.145-0.578,0.302L97.384,28.961c-0.427,0.427-0.427,1.12,0,1.547l8.755,8.755
				c0.427,0.427,1.12,0.427,1.548,0l2.509-2.509v7.208h-7.661c-3.013-0.009-5.463,2.427-5.471,5.44
				c-0.005,1.74,0.82,3.378,2.222,4.41c-2.418,1.767-2.946,5.159-1.179,7.576c0.33,0.451,0.728,0.849,1.179,1.179
				c-2.427,1.786-2.946,5.201-1.16,7.628c1.031,1.402,2.67,2.227,4.41,2.222h39.399c0.29,0,0.569-0.115,0.774-0.321l8.755-8.755
				c0.203-0.206,0.314-0.485,0.311-0.774h0.01V36.754l2.509,2.509c0.427,0.427,1.12,0.427,1.548,0l8.755-8.755
				C165.023,30.081,165.023,29.388,164.596,28.961z M130.99,17.729l7.959,1.99c-1.65,2.812-4.7,4.501-7.959,4.407
				c-3.258,0.094-6.309-1.596-7.959-4.407L130.99,17.729z M99.252,49.434c0-1.813,1.47-3.283,3.283-3.283h24.077
				c1.813,0,3.283,1.47,3.283,3.283s-1.47,3.283-3.283,3.283h-24.077C100.722,52.717,99.252,51.247,99.252,49.434z M99.252,58.189
				c0-1.813,1.47-3.283,3.283-3.283h24.077c1.813,0,3.283,1.47,3.283,3.283c0,1.813-1.47,3.283-3.283,3.283h-24.077
				C100.722,61.472,99.252,60.002,99.252,58.189z M126.612,70.228h-2.189h-21.888c-1.813,0-3.283-1.47-3.283-3.283
				c0-1.813,1.47-3.283,3.283-3.283h24.077c1.813,0,3.283,1.47,3.283,3.283C129.896,68.758,128.426,70.228,126.612,70.228z
				 M143.029,68.68v-5.019h5.019L143.029,68.68z M155.067,36.942l-6.887-6.887l-1.548,1.547l2.963,2.963v26.907h-7.661
				c-0.604,0-1.094,0.49-1.094,1.094v7.661h-9.878c1.822-2.36,1.385-5.749-0.974-7.571c-0.04-0.031-0.079-0.06-0.12-0.09
				c2.418-1.767,2.946-5.159,1.179-7.576c-0.33-0.451-0.728-0.849-1.179-1.179c2.427-1.786,2.946-5.201,1.16-7.628
				c-1.033-1.403-2.673-2.229-4.415-2.222h-14.227v-9.397l2.963-2.963l-1.547-1.547l-6.887,6.887l-7.208-7.208l9.928-9.929
				l10.506-1.91c0.716,4.745,5.308,8.418,10.848,8.418c5.54,0,10.132-3.673,10.848-8.418l10.506,1.91l9.933,9.929L155.067,36.942z"
				/>
			<rect x="101.441" y="48.339" fill="#108ACF" width="26.266" height="2.189"/>
			<rect x="101.441" y="57.095" fill="#108ACF" width="25.171" height="2.189"/>
			<rect x="101.441" y="65.85" fill="#108ACF" width="25.171" height="2.189"/>
		</g>
	</g>
</g>
</svg>
