<?xml version="1.0" encoding="utf-8"?>
<!-- Generator: Adobe Illustrator 17.0.1, SVG Export Plug-In . SVG Version: 6.00 Build 0)  -->
<!DOCTYPE svg PUBLIC "-//W3C//DTD SVG 1.1//EN" "http://www.w3.org/Graphics/SVG/1.1/DTD/svg11.dtd">
<svg version="1.1" id="Capa_1" xmlns="http://www.w3.org/2000/svg" xmlns:xlink="http://www.w3.org/1999/xlink" x="0px" y="0px"
	 width="65px" height="65px" viewBox="98.5 6 65 65" enable-background="new 98.5 6 65 65" xml:space="preserve">
<g>
	<path fill="#108ACF" d="M153.935,15.855h-0.968v-3.447c0-3.294-2.429-5.974-5.407-5.974l-39.244-0.267
		c-5.274,0-9.565,4.791-9.565,10.68c0,0,0.002,24.329,0.002,24.344c0.024,2.644,0.913,5.166,2.513,7.114
		c0.631,0.768,1.349,1.42,2.132,1.945c-0.364,0.193-0.727,0.421-1.082,0.69c-2.422,1.833-3.65,4.873-3.65,9.035
		c0,5.889,4.291,10.68,9.555,10.68l4.185,0.032c0.001,0,0.968-0.234,0.968-1.248c0-1.157-1.062-1.288-1.062-1.288l-4.081-0.031
		c-3.877,0-7.032-3.654-7.032-8.145c0-7.088,4.012-8.209,6.443-8.237c0.223,0.017,44.35-0.011,44.35-0.011
		c0.699,0,1.266-0.568,1.266-1.268c0-0.7-0.567-1.268-1.266-1.268c0,0-44.001,0.011-44.249,0.01
		c-3.617-0.338-6.444-3.875-6.459-8.086c0.015-4.477,3.163-8.114,7.023-8.114l39.244,0.267c1.582,0,2.869,1.527,2.882,3.41
		c-0.009,0.366-0.157,3.496-2.476,3.496c-0.003,0-36.053-0.052-36.053-0.052c-0.699,0-1.266,0.568-1.266,1.268
		c0,0.7,0.567,1.268,1.266,1.268c0,0,42.266,0.035,42.383,0.042c3.623,0.213,6.584,3.689,6.674,7.931c0,0.002,0,0.004,0,0.006
		c0.001,0.066,0.004,0.131,0.004,0.198c0,4.363-2.977,7.935-6.702,8.135c-0.075-0.014-42.36-0.022-42.36-0.022
		c-0.699,0-1.266,0.567-1.266,1.268c0,0.7,0.567,1.268,1.266,1.268c0,0,41.881,0.024,41.946,0.029c0.007,0,0.761,0.069,1.5,0.519
		c0.987,0.601,1.467,1.581,1.467,2.996c0,1.894-1.291,3.436-2.879,3.439l-36.299-0.274c-0.001,0-0.968,0.234-0.968,1.248
		c0,1.157,1.063,1.288,1.063,1.288L153.926,71c0.003,0,0.006,0,0.01,0c2.986,0,5.416-2.68,5.416-5.974
		c0-2.028-0.709-3.431-1.656-4.372c3.41-1.634,5.805-5.421,5.805-9.82c0-0.053,0-24.444,0-24.444
		C163.5,20.581,159.209,15.855,153.935,15.855z M141.102,10.891l5.923,6.476c-0.002,0-0.004,0-0.006,0
		c-2.248,0-4.419,0.822-5.917,1.561V10.891z M150.435,31.588c-0.834-0.581-1.819-0.919-2.874-0.919l-39.244-0.267
		c-2.778,0-5.283,1.331-7.032,3.45V16.847h0c0-4.491,3.155-8.145,7.023-8.145l30.261,0.206v12.207c0,0.473,0.263,0.906,0.682,1.124
		c0.184,0.096,0.385,0.143,0.585,0.143c0.255,0,0.509-0.077,0.726-0.229c0.032-0.023,3.249-2.25,6.458-2.25
		c1.367,0,2.489,0.405,3.416,1.235V31.588z M150.435,17.257l-7.348-8.319l4.465,0.03c1.59,0,2.883,1.543,2.883,3.439V17.257z
		 M160.968,43.593L160.968,43.593c-1.529-4.157-9.005-3.462-9.005-3.462c0.621-0.958,0.986-2.129,1.004-3.391
		c0-0.012,0.002-18.351,0.002-18.351h0.968c3.878,0,7.032,3.589,7.032,8V43.593z"/>
</g>
<path fill="#108ACF" d="M115.688,70.711"/>
</svg>
