<?xml version="1.0" encoding="utf-8"?>
<!-- Generator: Adobe Illustrator 17.0.1, SVG Export Plug-In . SVG Version: 6.00 Build 0)  -->
<!DOCTYPE svg PUBLIC "-//W3C//DTD SVG 1.1//EN" "http://www.w3.org/Graphics/SVG/1.1/DTD/svg11.dtd">
<svg version="1.1" id="Layer_1" xmlns="http://www.w3.org/2000/svg" xmlns:xlink="http://www.w3.org/1999/xlink" x="0px" y="0px"
	 width="60px" height="60px" viewBox="101 8.5 60 60" enable-background="new 101 8.5 60 60" xml:space="preserve">
<g>
	<g>
		<g>
			<path fill="#108ACF" d="M159.833,30.774c-2.072-7.732-7.005-14.18-13.891-18.155c-4.512-2.605-9.651-3.982-14.86-3.982
				c-10.701,0-20.65,5.717-25.963,14.921c-3.975,6.886-5.024,14.936-2.952,22.668c2.072,7.732,7.005,14.18,13.891,18.156
				c0.958,0.553,1.945,1.05,2.954,1.491h-0.464c-0.688,0-1.245,0.558-1.245,1.245c0,0.688,0.558,1.245,1.245,1.245h24.904
				c0.688,0,1.245-0.558,1.245-1.245c0-0.688-0.558-1.245-1.245-1.245h-0.556c5.796-2.515,10.749-6.827,13.985-12.43
				C160.857,46.557,161.905,38.506,159.833,30.774z M154.725,52.197c-4.87,8.435-13.992,13.675-23.807,13.675
				c-4.773,0-9.482-1.261-13.616-3.648c-13.082-7.553-17.58-24.341-10.027-37.422c4.87-8.435,13.992-13.675,23.807-13.675
				c4.773,0,9.482,1.262,13.615,3.648c6.31,3.643,10.831,9.553,12.73,16.643C159.327,38.508,158.368,45.887,154.725,52.197z"/>
			<path fill="#108ACF" d="M125.199,60.15c-7.71-2.066-13.784-8.139-15.85-15.849c-0.178-0.664-0.86-1.058-1.525-0.881
				c-0.664,0.178-1.058,0.861-0.88,1.525c2.296,8.567,9.044,15.314,17.611,17.61c0.108,0.029,0.216,0.043,0.323,0.043
				c0.55,0,1.053-0.367,1.202-0.923C126.258,61.011,125.863,60.328,125.199,60.15z"/>
			<path fill="#108ACF" d="M137.446,14.444c-0.664-0.178-1.347,0.216-1.525,0.88s0.216,1.347,0.881,1.525
				c7.71,2.066,13.783,8.139,15.849,15.849c0.149,0.556,0.652,0.923,1.202,0.923c0.106,0,0.215-0.014,0.323-0.043
				c0.664-0.178,1.058-0.861,0.88-1.525C152.76,23.487,146.013,16.74,137.446,14.444z"/>
			<path fill="#108ACF" d="M130.256,60.902c-0.312-0.011-0.626-0.028-0.931-0.051c-0.688-0.053-1.284,0.462-1.336,1.148
				c-0.052,0.686,0.462,1.284,1.148,1.336c0.34,0.026,0.689,0.045,1.036,0.056c0.014,0,0.028,0.001,0.043,0.001
				c0.668,0,1.221-0.53,1.244-1.203C131.481,61.501,130.943,60.925,130.256,60.902z"/>
			<path fill="#108ACF" d="M131.744,16.098c0.31,0.011,0.625,0.028,0.934,0.051c0.031,0.002,0.063,0.003,0.094,0.003
				c0.646,0,1.192-0.499,1.241-1.153c0.051-0.686-0.464-1.283-1.15-1.334c-0.342-0.026-0.69-0.044-1.033-0.056
				c-0.69-0.025-1.263,0.515-1.287,1.202C130.518,15.499,131.057,16.075,131.744,16.098z"/>
			<path fill="#108ACF" d="M143.591,31.432h-6.646c0.534-2.526,0.889-5.208-0.55-7.189c-0.965-1.329-2.608-2.113-4.882-2.328
				c-0.08-0.008-0.161-0.011-0.241-0.011c-1.306,0-2.426,1.019-2.549,2.318c-0.425,4.478-1.636,6.987-2.878,8.106
				c-0.151-0.518-0.628-0.896-1.195-0.896h-7.913c-0.688,0-1.245,0.558-1.245,1.245V48.87c0,0.688,0.558,1.245,1.245,1.245h7.913
				c0.582,0,1.069-0.399,1.206-0.939c0.934,0.607,2.104,0.939,3.453,0.939h13.158c1.333,0,2.416-1.028,2.576-2.444l1.439-12.789
				c0.114-1.005-0.136-1.907-0.703-2.541C145.409,31.926,144.729,31.432,143.591,31.432z M123.405,34.265v9.882v3.477h-5.423v-8.721
				h2.712c0.688,0,1.245-0.558,1.245-1.245c0-0.688-0.558-1.245-1.245-1.245h-2.712v-2.49h5.423V34.265z M144.007,34.603
				l-1.439,12.79c-0.016,0.144-0.08,0.222-0.095,0.232c0,0-0.002,0-0.006,0h-13.158c-2.97,0-3.414-2.178-3.414-3.477v-8.945
				c0.812-0.334,1.817-1.001,2.75-2.329c1.349-1.921,2.21-4.753,2.557-8.416c0.003-0.035,0.035-0.063,0.076-0.062
				c1.532,0.145,2.575,0.586,3.102,1.312c0.994,1.369,0.406,3.993-0.113,6.308l-0.088,0.393c-0.082,0.369,0.008,0.755,0.244,1.049
				c0.236,0.295,0.594,0.466,0.971,0.466h8.196c0.162,0,0.289,0.029,0.331,0.077C143.987,34.073,144.042,34.293,144.007,34.603z"/>
		</g>
	</g>
</g>
</svg>
