<?xml version="1.0" encoding="utf-8"?>
<!-- Generator: Adobe Illustrator 17.0.1, SVG Export Plug-In . SVG Version: 6.00 Build 0)  -->
<!DOCTYPE svg PUBLIC "-//W3C//DTD SVG 1.1//EN" "http://www.w3.org/Graphics/SVG/1.1/DTD/svg11.dtd">
<svg version="1.1" id="Layer_1" xmlns="http://www.w3.org/2000/svg" xmlns:xlink="http://www.w3.org/1999/xlink" x="0px" y="0px"
	 width="50px" height="60px" viewBox="106 8.5 50 60" enable-background="new 106 8.5 50 60" xml:space="preserve">
<g>
	<g>
		<g>
			<path fill="#108ACF" d="M154.737,19.122c-3.9,0-6.86-2.283-9.995-4.699c-3.601-2.776-7.682-5.923-13.749-5.923
				c-6.067,0-10.148,3.147-13.749,5.923c-3.134,2.416-6.094,4.699-9.995,4.699c-0.69,0-1.25,0.56-1.25,1.25
				c0,14.591,1.817,24.307,5.892,31.502c4.046,7.145,10.07,11.589,18.476,16.442c0.193,0.112,0.409,0.167,0.625,0.167
				s0.431-0.056,0.625-0.167c8.407-4.854,14.43-9.297,18.476-16.442c4.075-7.196,5.892-16.911,5.892-31.502
				C155.986,19.681,155.427,19.122,154.737,19.122z M130.993,65.789c-15.074-8.79-22.293-16.362-22.49-44.231
				c4.117-0.415,7.239-2.822,10.267-5.156c3.445-2.656,7.007-5.403,12.223-5.403c5.215,0,8.777,2.747,12.223,5.403
				c3.028,2.335,6.15,4.741,10.267,5.156C153.286,49.427,146.067,56.999,130.993,65.789z"/>
			<path fill="#108ACF" d="M116.228,22.772c-0.322-0.611-1.077-0.845-1.688-0.523c-0.155,0.082-0.313,0.162-0.471,0.24
				c-0.619,0.305-0.874,1.054-0.569,1.673c0.217,0.442,0.661,0.698,1.122,0.698c0.185,0,0.374-0.041,0.551-0.129
				c0.178-0.088,0.356-0.178,0.531-0.271C116.315,24.139,116.55,23.383,116.228,22.772z"/>
			<path fill="#108ACF" d="M149.221,32.572c0.038,0.003,0.077,0.005,0.114,0.005c0.639,0,1.184-0.488,1.243-1.137
				c0.015-0.16,0.028-0.32,0.042-0.479c0.058-0.688-0.452-1.292-1.14-1.351c-0.687-0.059-1.292,0.452-1.351,1.14
				c-0.013,0.154-0.027,0.309-0.041,0.464C148.027,31.901,148.533,32.509,149.221,32.572z"/>
			<path fill="#108ACF" d="M118.698,22.339c0.253,0,0.509-0.077,0.73-0.237c0.724-0.523,1.429-1.059,2.111-1.579
				c3.19-2.429,5.944-4.526,9.454-4.526c0.69,0,1.25-0.56,1.25-1.25c0-0.69-0.56-1.25-1.25-1.25c-4.353,0-7.566,2.447-10.968,5.037
				c-0.669,0.51-1.362,1.037-2.06,1.541c-0.56,0.404-0.686,1.185-0.282,1.745C117.928,22.16,118.31,22.339,118.698,22.339z"/>
			<path fill="#108ACF" d="M130.993,59.965c-3.198-1.972-7.061-4.62-9.957-8.034c-0.446-0.526-1.235-0.591-1.761-0.145
				c-0.526,0.446-0.591,1.235-0.145,1.762c3.327,3.923,7.742,6.845,11.215,8.951c0.006,0.004,0.013,0.006,0.019,0.01
				c0.03,0.017,0.061,0.032,0.092,0.047c0.02,0.009,0.04,0.02,0.06,0.028c0.028,0.011,0.057,0.021,0.086,0.03
				c0.024,0.008,0.048,0.017,0.072,0.024c0.026,0.007,0.053,0.011,0.079,0.016c0.027,0.005,0.053,0.012,0.08,0.015
				c0.038,0.005,0.076,0.006,0.114,0.008c0.015,0,0.029,0.003,0.044,0.003c0,0,0.001,0,0.001,0c0,0,0.001,0,0.001,0
				c0.015,0,0.029-0.002,0.044-0.003c0.038-0.002,0.077-0.003,0.114-0.008c0.027-0.003,0.053-0.01,0.079-0.015
				c0.027-0.005,0.054-0.009,0.08-0.016c0.024-0.006,0.048-0.015,0.072-0.023c0.029-0.009,0.058-0.019,0.086-0.03
				c0.02-0.008,0.04-0.019,0.06-0.028c0.031-0.015,0.062-0.03,0.092-0.047c0.007-0.004,0.013-0.006,0.019-0.01
				c3.474-2.107,7.888-5.028,11.215-8.952c3.794-4.475,6.186-10.532,7.312-18.515c0.096-0.683-0.38-1.315-1.063-1.412
				c-0.684-0.096-1.316,0.38-1.412,1.063c-1.058,7.502-3.263,13.144-6.743,17.248C138.054,55.346,134.192,57.993,130.993,59.965z"/>
			<path fill="#108ACF" d="M139.059,24.134L126.022,37.17l-3.093-3.094c-0.765-0.765-1.785-1.186-2.872-1.186
				c-1.087,0-2.107,0.421-2.873,1.186c-1.583,1.584-1.583,4.161,0,5.745l5.975,5.974l0.052,0.051
				c0.008,0.007,0.015,0.015,0.023,0.022l0.052,0.049c0.009,0.009,0.019,0.017,0.028,0.025l0.054,0.047
				c0.008,0.007,0.017,0.014,0.025,0.021l0.054,0.045c0.006,0.005,0.013,0.01,0.019,0.015l0.055,0.044
				c0.01,0.008,0.021,0.016,0.031,0.024l0.057,0.043c0.008,0.006,0.016,0.012,0.024,0.017l0.057,0.041
				c0.009,0.006,0.017,0.012,0.026,0.018l0.058,0.039c0.009,0.006,0.019,0.012,0.028,0.018l0.059,0.038
				c0.008,0.005,0.016,0.01,0.024,0.015l0.06,0.036c0.008,0.005,0.016,0.01,0.024,0.014l0.06,0.034
				c0.012,0.007,0.024,0.013,0.035,0.02l0.061,0.032c0.006,0.003,0.013,0.007,0.019,0.01l0.062,0.032
				c0.011,0.006,0.022,0.011,0.033,0.016l0.062,0.03c0.009,0.004,0.018,0.008,0.026,0.012l0.032,0.014
				c0.022,0.011,0.045,0.021,0.068,0.03l0.063,0.026c0.006,0.002,0.011,0.005,0.017,0.007l0.064,0.025
				c0.009,0.004,0.019,0.008,0.029,0.011l0.065,0.024c0.01,0.004,0.021,0.007,0.031,0.011l0.031,0.011
				c0.021,0.008,0.043,0.015,0.065,0.021l0.065,0.02c0.009,0.003,0.019,0.006,0.028,0.008l0.066,0.018
				c0.009,0.002,0.018,0.005,0.027,0.007l0.066,0.017c0.009,0.002,0.018,0.004,0.027,0.007l0.066,0.015
				c0.009,0.002,0.019,0.004,0.028,0.006l0.066,0.014c0.013,0.003,0.025,0.005,0.038,0.007l0.033,0.006
				c0.019,0.004,0.039,0.008,0.059,0.011l0.067,0.01c0.01,0.002,0.02,0.003,0.03,0.004l0.067,0.009
				c0.009,0.001,0.019,0.002,0.029,0.003l0.032,0.003c0.021,0.003,0.042,0.005,0.063,0.007l0.068,0.006
				c0.013,0.001,0.025,0.002,0.038,0.002l0.032,0.002c0.021,0.002,0.042,0.003,0.063,0.003l0.068,0.002c0.007,0,0.013,0,0.02,0
				l0.067,0.001c0.006,0,0.012,0,0.018,0c0.006,0,0.012,0,0.018,0l0.068-0.001c0.007,0,0.013,0,0.02,0l0.068-0.002
				c0.021,0,0.042-0.002,0.063-0.003l0.032-0.002c0.013-0.001,0.026-0.002,0.039-0.003l0.067-0.006
				c0.021-0.002,0.042-0.004,0.062-0.007l0.032-0.003c0.009-0.001,0.019-0.002,0.028-0.003l0.068-0.009
				c0.011-0.001,0.021-0.003,0.031-0.004l0.067-0.01c0.021-0.003,0.041-0.007,0.061-0.011l0.032-0.006
				c0.013-0.002,0.025-0.004,0.037-0.007l0.066-0.014c0.009-0.002,0.017-0.003,0.026-0.005l0.067-0.015
				c0.011-0.002,0.021-0.005,0.032-0.008l0.066-0.017c0.009-0.002,0.017-0.005,0.026-0.007l0.065-0.018
				c0.009-0.002,0.018-0.005,0.027-0.008l0.065-0.02c0.021-0.006,0.041-0.013,0.061-0.02l0.032-0.011
				c0.011-0.004,0.023-0.008,0.034-0.012l0.065-0.024c0.01-0.004,0.019-0.007,0.029-0.011l0.064-0.025
				c0.007-0.003,0.014-0.006,0.021-0.009l0.063-0.026c0.02-0.008,0.04-0.017,0.06-0.027l0.032-0.014
				c0.011-0.005,0.021-0.009,0.032-0.014l0.062-0.03c0.008-0.004,0.017-0.008,0.025-0.012l0.062-0.031
				c0.02-0.01,0.039-0.021,0.059-0.032l0.032-0.017c0.009-0.005,0.018-0.01,0.027-0.015l0.06-0.034
				c0.01-0.006,0.019-0.011,0.029-0.017l0.06-0.036c0.009-0.006,0.019-0.011,0.028-0.017l0.059-0.038
				c0.007-0.004,0.013-0.009,0.019-0.013l0.059-0.039c0.01-0.007,0.02-0.014,0.03-0.021l0.057-0.041
				c0.01-0.007,0.019-0.014,0.029-0.021l0.056-0.043c0.007-0.005,0.014-0.011,0.021-0.016l0.055-0.044
				c0.015-0.011,0.029-0.024,0.043-0.036l0.032-0.026c0.011-0.009,0.022-0.018,0.032-0.028l0.054-0.047
				c0.007-0.006,0.014-0.012,0.021-0.019l0.053-0.049c0.008-0.007,0.015-0.014,0.023-0.022l0.052-0.05
				c0.011-0.011,0.022-0.022,0.033-0.034l15.889-15.888c1.583-1.584,1.583-4.161-0.001-5.744c-0.765-0.765-1.785-1.186-2.872-1.186
				C140.844,22.948,139.824,23.369,139.059,24.134z M143.036,28.111l-15.909,15.909c-0.003,0.003-0.006,0.006-0.008,0.008
				l-0.116,0.103c-0.001,0.001-0.003,0.002-0.004,0.003l-0.149,0.105l-0.211,0.11c0,0-0.001,0-0.002,0.001l-0.14,0.051
				c-0.002,0-0.003,0.001-0.004,0.002l-0.216,0.05c-0.002,0-0.005,0.001-0.008,0.002l-0.108,0.013c-0.003,0-0.005,0.001-0.008,0.001
				l-0.061,0.004c-0.003,0-0.005,0-0.008,0l-0.062,0.001l-0.039-0.001l-0.022,0c-0.003,0-0.005,0-0.008,0l-0.062-0.004
				c-0.002,0-0.005,0-0.007-0.001l-0.108-0.013c-0.003,0-0.006-0.001-0.009-0.002l-0.215-0.05c0,0-0.001,0-0.001,0l-0.123-0.044
				l-0.235-0.12l-0.216-0.163l-6.025-6.022c-0.609-0.609-0.609-1.601,0-2.21c0.293-0.293,0.685-0.454,1.105-0.454
				c0.42,0,0.812,0.161,1.105,0.454l3.977,3.977c0.234,0.235,0.552,0.366,0.883,0.366c0.331,0,0.649-0.132,0.884-0.366l13.92-13.92
				c0.293-0.293,0.685-0.454,1.105-0.454c0.42,0,0.812,0.161,1.105,0.454C143.645,26.51,143.645,27.502,143.036,28.111z"/>
		</g>
	</g>
</g>
</svg>
