<?xml version="1.0" encoding="utf-8"?>
<!-- Generator: Adobe Illustrator 17.0.1, SVG Export Plug-In . SVG Version: 6.00 Build 0)  -->
<!DOCTYPE svg PUBLIC "-//W3C//DTD SVG 1.1//EN" "http://www.w3.org/Graphics/SVG/1.1/DTD/svg11.dtd">
<svg version="1.1" id="Слой_1" xmlns="http://www.w3.org/2000/svg" xmlns:xlink="http://www.w3.org/1999/xlink" x="0px" y="0px"
	 width="50px" height="60px" viewBox="106 8.5 50 60" enable-background="new 106 8.5 50 60" xml:space="preserve">
<path fill="#108ACF" d="M150.208,28.503l2.522-2.523c1.37-1.37,1.37-3.599,0-4.97c-1.37-1.37-3.6-1.37-4.97,0l-2.693,2.693
	c-2.809-1.956-6.011-3.311-9.366-3.96v-3.495h2.343c0.647,0,1.172-0.524,1.172-1.172V12.03c0-1.938-1.577-3.515-3.515-3.515h-9.373
	c-1.938,0-3.515,1.577-3.515,3.515v3.046c0,0.647,0.524,1.172,1.172,1.172h2.343v3.495c-3.355,0.649-6.557,2.004-9.366,3.96
	l-2.693-2.693c-1.37-1.37-3.599-1.37-4.97,0c-1.37,1.37-1.37,3.6,0,4.97l2.522,2.523c-3.496,4.354-5.41,9.779-5.41,15.394
	c0,13.566,11.037,24.603,24.603,24.603s24.603-11.037,24.603-24.603C155.618,38.281,153.704,32.857,150.208,28.503z M149.416,22.667
	c0.457-0.457,1.2-0.456,1.657,0c0.456,0.457,0.456,1.2,0,1.657l-2.421,2.42c-0.546-0.56-1.118-1.094-1.713-1.6L149.416,22.667z
	 M125.157,12.03c0-0.646,0.525-1.172,1.172-1.172h9.373c0.646,0,1.172,0.525,1.172,1.172v1.875h-11.716V12.03z M133.358,16.248
	v3.157c-1.553-0.146-3.133-0.146-4.686,0v-3.157H133.358z M110.956,22.667c0.457-0.456,1.2-0.457,1.657,0l2.477,2.477
	c-0.595,0.506-1.167,1.04-1.713,1.6l-2.421-2.42C110.5,23.867,110.5,23.124,110.956,22.667z M131.014,66.157
	c-12.274,0-22.26-9.986-22.26-22.26c0-5.414,1.966-10.631,5.534-14.69c0.983-1.118,2.08-2.139,3.26-3.037
	c2.958-2.251,6.459-3.732,10.124-4.284c1.097-0.164,2.221-0.248,3.341-0.248s2.244,0.084,3.34,0.248
	c3.666,0.552,7.167,2.034,10.125,4.284c1.18,0.898,2.277,1.919,3.26,3.037c3.569,4.059,5.534,9.276,5.534,14.69
	C153.274,56.171,143.289,66.157,131.014,66.157z"/>
<path fill="#108ACF" d="M131.014,47.412c1.938,0,3.515-1.577,3.515-3.515c0-1.527-0.979-2.83-2.343-3.313v-8.402
	c0-0.647-0.524-1.172-1.172-1.172s-1.172,0.524-1.172,1.172v8.402c-1.364,0.484-2.343,1.786-2.343,3.313
	C127.5,45.835,129.076,47.412,131.014,47.412z M131.014,42.725c0.646,0,1.172,0.525,1.172,1.172s-0.525,1.172-1.172,1.172
	s-1.172-0.525-1.172-1.172S130.368,42.725,131.014,42.725z"/>
<path fill="#108ACF" d="M143.495,31.537c-0.018-0.022-0.037-0.043-0.057-0.063c-0.022-0.022-0.045-0.043-0.069-0.063
	c-2.065-2.043-4.616-3.555-7.384-4.372c-0.621-0.183-1.272,0.171-1.455,0.792s0.171,1.272,0.792,1.455
	c2.051,0.606,3.965,1.653,5.596,3.051l-0.79,0.79c-0.457,0.458-0.457,1.199,0,1.657c0.229,0.229,0.529,0.343,0.829,0.343
	c0.3,0,0.6-0.114,0.828-0.343l0.792-0.792c2.12,2.465,3.379,5.499,3.624,8.733h-1.127c-0.647,0-1.172,0.525-1.172,1.172
	c0,0.647,0.524,1.172,1.172,1.172h1.127c-0.245,3.234-1.504,6.268-3.624,8.733l-0.792-0.792c-0.458-0.457-1.199-0.457-1.657,0
	c-0.458,0.458-0.458,1.199,0,1.657l0.792,0.792c-2.465,2.12-5.499,3.379-8.733,3.625v-1.127c0-0.647-0.524-1.172-1.172-1.172
	s-1.172,0.524-1.172,1.172v1.127c-3.234-0.245-6.268-1.504-8.733-3.624l0.792-0.792c0.458-0.458,0.458-1.199,0-1.657
	c-0.458-0.457-1.199-0.457-1.657,0l-0.792,0.792c-2.12-2.465-3.379-5.499-3.624-8.733h1.127c0.647,0,1.172-0.524,1.172-1.172
	s-0.524-1.172-1.172-1.172h-1.127c0.245-3.234,1.504-6.268,3.624-8.733l0.792,0.792c0.229,0.229,0.529,0.343,0.828,0.343
	c0.3,0,0.6-0.114,0.829-0.343c0.457-0.458,0.457-1.199,0-1.657l-0.79-0.79c1.631-1.399,3.544-2.445,5.596-3.051
	c0.621-0.183,0.975-0.835,0.792-1.455c-0.183-0.621-0.834-0.974-1.455-0.792c-2.768,0.817-5.318,2.328-7.382,4.37
	c-0.024,0.021-0.048,0.042-0.07,0.064c-0.02,0.02-0.038,0.041-0.056,0.062c-3.285,3.316-5.094,7.702-5.094,12.361
	c0,4.659,1.809,9.044,5.093,12.36c0.018,0.022,0.037,0.043,0.057,0.063c0.02,0.021,0.041,0.038,0.062,0.057
	c3.316,3.285,7.702,5.094,12.361,5.094c4.659,0,9.044-1.808,12.36-5.093c0.022-0.019,0.043-0.037,0.063-0.058
	c0.02-0.02,0.038-0.041,0.056-0.062c3.285-3.316,5.094-7.702,5.094-12.361C148.588,39.238,146.779,34.853,143.495,31.537z"/>
<path fill="#108ACF" d="M131.014,28.667c0.647,0,1.172-0.525,1.172-1.172c0-0.647-0.525-1.172-1.172-1.172s-1.172,0.525-1.172,1.172
	C129.843,28.142,130.368,28.667,131.014,28.667z"/>
</svg>
