<?xml version="1.0" encoding="utf-8"?>
<!-- Generator: Adobe Illustrator 17.0.1, SVG Export Plug-In . SVG Version: 6.00 Build 0)  -->
<!DOCTYPE svg PUBLIC "-//W3C//DTD SVG 1.1//EN" "http://www.w3.org/Graphics/SVG/1.1/DTD/svg11.dtd">
<svg version="1.1" id="Capa_1" xmlns="http://www.w3.org/2000/svg" xmlns:xlink="http://www.w3.org/1999/xlink" x="0px" y="0px"
	 width="58px" height="58px" viewBox="102 9.5 58 58" enable-background="new 102 9.5 58 58" xml:space="preserve">
<g>
	<g>
		<path fill="#108ACF" d="M155.005,17.317v-4.807c0-0.531-0.43-0.961-0.961-0.961h-9.615c-0.531,0-0.961,0.43-0.961,0.961v4.807
			h-1.923c-0.297,0-0.577,0.137-0.76,0.371l-6.73,8.653c-0.131,0.169-0.202,0.377-0.202,0.59v3.846h-5.769v-3.846
			c0-0.222-0.077-0.437-0.217-0.609l-8.436-10.311v-5.426c0-0.531-0.43-0.961-0.961-0.961h-6.73c-0.531,0-0.961,0.43-0.961,0.961
			v5.426l-8.436,10.311c-0.14,0.172-0.217,0.387-0.217,0.609v35.574c0.003,2.654,2.154,4.804,4.807,4.807h48.073
			c2.654-0.003,4.804-2.154,4.807-4.807V22.124C159.809,19.47,157.659,17.32,155.005,17.317z M145.391,13.471h7.692v3.846h-7.692
			V13.471z M128.084,36.546V32.7h1.923v3.846h1.923V32.7h1.923v3.846h1.923V32.7h1.923v5.769h-13.46V32.7h1.923v3.846H128.084z
			 M112.701,11.548h4.807v3.846h-4.807V11.548z M104.048,27.274l8.147-9.958h5.819l8.147,9.958v3.503h-2.884
			c-0.531,0-0.961,0.43-0.961,0.961V32.7h-18.268V27.274z M120.393,65.39h-13.46c-1.593,0-2.884-1.291-2.884-2.884v-1.923h16.345
			V65.39z M120.393,39.43v19.229h-16.345v-1.923h9.615v-1.923h-9.615V34.623h18.268v3.846h-0.961
			C120.823,38.469,120.393,38.899,120.393,39.43z M139.622,65.39h-17.306V40.392h17.306V65.39z M157.89,62.505
			c0,1.593-1.291,2.884-2.884,2.884h-13.46v-4.807h16.345V62.505z M157.89,58.659h-16.345v-1.923h10.576v-1.923h-10.576V39.43
			c0-0.531-0.43-0.961-0.961-0.961h-0.961v-6.73c0-0.531-0.43-0.961-0.961-0.961h-2.884v-2.884h22.114V58.659z M157.89,25.97
			h-21.109l5.234-6.73h12.99c1.593,0,2.884,1.291,2.884,2.884V25.97z"/>
	</g>
</g>
<g>
	<g>
		<path fill="#108ACF" d="M130.969,45.199c-3.717,0-6.73,3.013-6.73,6.73s3.013,6.73,6.73,6.73s6.73-3.013,6.73-6.73
			C137.695,48.214,134.684,45.203,130.969,45.199z M130.969,56.736c-1.912-0.002-3.641-1.137-4.403-2.89l1.478-1.478
			c0.82-0.818,2.147-0.818,2.967,0c1.214,1.207,3.061,1.51,4.598,0.756C135.064,55.244,133.157,56.729,130.969,56.736z
			 M135.337,51.009c-0.83,0.792-2.137,0.792-2.967,0c-1.571-1.568-4.115-1.568-5.686,0l-0.481,0.481
			c0.222-2.469,2.287-4.362,4.766-4.368c2.189,0.008,4.097,1.494,4.64,3.615L135.337,51.009z"/>
	</g>
</g>
<g>
	<g>
		<rect x="115.585" y="54.814" fill="#108ACF" width="1.923" height="1.923"/>
	</g>
</g>
<g>
	<g>
		<rect x="154.044" y="54.814" fill="#108ACF" width="1.923" height="1.923"/>
	</g>
</g>
<g>
	<g>
		<path fill="#108ACF" d="M154.044,30.777h-6.73c-0.531,0-0.961,0.43-0.961,0.961v6.73c0,0.531,0.43,0.961,0.961,0.961h6.73
			c0.531,0,0.961-0.43,0.961-0.961v-6.73C155.005,31.208,154.575,30.777,154.044,30.777z M153.082,37.507h-4.807V32.7h4.807V37.507z
			"/>
	</g>
</g>
</svg>
