<?xml version="1.0" encoding="utf-8"?>
<!-- Generator: Adobe Illustrator 17.0.1, SVG Export Plug-In . SVG Version: 6.00 Build 0)  -->
<!DOCTYPE svg PUBLIC "-//W3C//DTD SVG 1.1//EN" "http://www.w3.org/Graphics/SVG/1.1/DTD/svg11.dtd">
<svg version="1.1" id="Capa_1" xmlns="http://www.w3.org/2000/svg" xmlns:xlink="http://www.w3.org/1999/xlink" x="0px" y="0px"
	 width="66px" height="58px" viewBox="98 9.5 66 58" enable-background="new 98 9.5 66 58" xml:space="preserve">
<g>
	<g>
		<path fill="#108ACF" d="M138.595,52.051h-3.61c-0.533,0-0.965,0.432-0.965,0.965c0,0.533,0.432,0.965,0.965,0.965h3.61
			c0.533,0,0.965-0.432,0.965-0.965C139.559,52.483,139.127,52.051,138.595,52.051z"/>
	</g>
</g>
<g>
	<g>
		<path fill="#108ACF" d="M159.843,41.724l-5.253-2.026l-2.678-2.678c-0.172-0.172-0.394-0.265-0.62-0.28v-2.131
			c1.262-1.346,2.161-3.05,2.523-4.97c0.225,0.01,0.452-0.008,0.677-0.054c1.283-0.263,2.215-1.454,2.215-2.831V26.05
			c0-0.797-0.323-1.529-0.85-2.052c0.852-4.633,0.15-8.408-2.038-10.935c-2.117-2.444-5.527-3.612-9.861-3.378
			c-4.005,0.216-6.59,2.059-7.409,2.733c-0.448,0.053-1.212,0.211-1.985,0.674c-1.071,0.643-2.348,1.993-2.348,4.776
			c0,2.427,0.388,4.454,0.669,5.604c-0.941,0.459-1.571,1.453-1.571,2.589v0.692c0,1.378,0.932,2.569,2.215,2.831
			c0.224,0.046,0.452,0.064,0.677,0.054c0.363,1.92,1.261,3.624,2.523,4.97v2.131c-0.226,0.015-0.448,0.108-0.62,0.28l-2.678,2.678
			l-5.253,2.026c-0.454,0.175-0.889,0.402-1.29,0.675c-0.441,0.299-0.555,0.899-0.256,1.34c0.187,0.275,0.49,0.423,0.799,0.423
			c0.187,0,0.375-0.054,0.541-0.167c0.28-0.19,0.583-0.349,0.9-0.471l4.875-1.88l3.727,5.591c0.462,0.693,1.203,1.138,2.032,1.22
			c0.092,0.009,0.184,0.014,0.276,0.014c0.48,0,0.945-0.126,1.358-0.359l-0.8,18.144c-0.024,0.532,0.389,0.983,0.921,1.006
			c0.014,0.001,0.029,0.001,0.043,0.001c0.513,0,0.94-0.405,0.963-0.922l0.742-16.841h2.003l0.742,16.841
			c0.023,0.518,0.45,0.922,0.963,0.922c0.014,0,0.029,0,0.043-0.001c0.532-0.023,0.945-0.474,0.921-1.006l-0.8-18.144
			c0.412,0.233,0.878,0.359,1.358,0.359c0.092,0,0.184-0.005,0.276-0.014c0.829-0.082,1.569-0.527,2.032-1.22l3.727-5.591
			l4.875,1.88c0.684,0.264,1.272,0.684,1.735,1.209l-3.335,3.335c-1.205,1.205-1.869,2.807-1.869,4.511v13.716
			c0,0.533,0.432,0.965,0.965,0.965c0.533,0,0.965-0.432,0.965-0.965V52.579c0-1.189,0.463-2.306,1.303-3.147l2.927-2.927
			c0.118,0.431,0.172,0.885,0.154,1.348l-0.747,18.403c-0.022,0.532,0.392,0.981,0.925,1.003c0.013,0.001,0.027,0.001,0.04,0.001
			c0.515,0,0.942-0.407,0.963-0.925l0.747-18.403C164.031,45.202,162.392,42.707,159.843,41.724z M136.092,29.241
			c-0.17-0.926-1.028-1.599-1.953-1.531c-0.073,0.005-0.149,0-0.224-0.015c-0.384-0.078-0.673-0.483-0.673-0.941v-0.693
			c0-0.447,0.299-0.851,0.681-0.918c0.322-0.057,0.63,0.062,0.826,0.316c0.177,0.231,0.413,0.396,0.683,0.477
			c0.395,0.119,0.831,0.049,1.166-0.187c0.603-0.426,1.135-0.946,1.582-1.547c0.318-0.428,0.229-1.032-0.198-1.35
			c-0.428-0.318-1.032-0.229-1.35,0.198c-0.223,0.299-0.474,0.571-0.751,0.812c-0.306-0.262-0.663-0.451-1.046-0.559
			c-0.248-0.949-0.689-2.984-0.689-5.437c0-1.477,0.455-2.516,1.354-3.085c0.701-0.445,1.443-0.462,1.442-0.463
			c0.247,0,0.487-0.097,0.666-0.266c0.024-0.022,2.395-2.223,6.456-2.442c3.717-0.201,6.587,0.738,8.299,2.714
			c1.725,1.992,2.3,5.051,1.677,8.879c-0.258-0.009-0.541,0.01-0.823,0.057l-0.906-2.176c-0.185-0.444-0.669-0.684-1.135-0.562
			c-0.09,0.023-8.998,2.282-12.733-2.369c-0.334-0.415-0.941-0.482-1.356-0.148c-0.415,0.334-0.482,0.941-0.148,1.356
			c3.814,4.749,11.383,3.716,13.902,3.212l0.701,1.683c0.301,0.723,1.072,1.119,1.832,0.939c0.312-0.073,0.61-0.075,0.722-0.053
			c0.39,0.078,0.684,0.467,0.684,0.905v0.704c0,0.458-0.289,0.863-0.673,0.941c-0.076,0.016-0.152,0.021-0.224,0.015
			c-0.926-0.067-1.783,0.605-1.953,1.531c-0.702,3.82-4.031,6.594-7.917,6.594C140.124,35.834,136.794,33.061,136.092,29.241z
			 M140.372,46.293c-0.245,0.245-0.529,0.257-0.677,0.242c-0.148-0.015-0.424-0.082-0.616-0.37l-3.755-5.632l1.51-1.51l5.765,5.044
			L140.372,46.293z M143.093,47.567l0.058-1.326l0.858-0.858l0.858,0.858l0.058,1.326H143.093z M144.009,42.737l-5.353-4.684v-1.846
			c1.556,0.99,3.398,1.556,5.353,1.556c1.955,0,3.797-0.567,5.353-1.556v1.846L144.009,42.737z M148.941,46.165
			c-0.192,0.288-0.469,0.356-0.616,0.37c-0.148,0.015-0.432,0.003-0.677-0.242l-2.227-2.227l5.765-5.044l1.51,1.51L148.941,46.165z"
			/>
	</g>
</g>
<g>
	<g>
		<path fill="#108ACF" d="M128.665,46.779l-4.71-2.056l-2.575-2.575c-0.172-0.173-0.394-0.265-0.62-0.28v-1.518
			c2.201-1.446,3.811-3.746,4.328-6.486c0.253,0.011,0.509-0.013,0.761-0.073c1.234-0.292,2.13-1.475,2.13-2.813v-0.703
			c0-0.977-0.485-1.856-1.236-2.372c0.221-0.875,0.334-1.771,0.334-2.672c0-3.996-2.16-7.516-5.417-9.538
			c-0.035-3.335-2.882-6.039-6.378-6.039s-6.343,2.704-6.378,6.039c-3.256,2.021-5.416,5.541-5.416,9.538
			c0,0.899,0.112,1.792,0.332,2.665c-0.751,0.513-1.234,1.396-1.234,2.39v0.693c0,1.338,0.896,2.521,2.13,2.813
			c0.252,0.06,0.508,0.084,0.761,0.073c0.517,2.74,2.128,5.04,4.328,6.486v1.518c-0.226,0.014-0.447,0.107-0.62,0.28l-2.575,2.575
			l-4.71,2.056c-2.397,1.046-3.932,3.504-3.822,6.117l0.57,13.44c0.022,0.518,0.449,0.924,0.963,0.924c0.014,0,0.028,0,0.042-0.001
			c0.532-0.023,0.945-0.472,0.923-1.005l-0.57-13.44c-0.037-0.866,0.188-1.706,0.612-2.429l2.532,3.038
			c0.8,0.96,1.241,2.177,1.241,3.427v9.445c0,0.533,0.432,0.965,0.965,0.965c0.533,0,0.965-0.432,0.965-0.965V56.85
			c0-1.7-0.599-3.356-1.688-4.662l-2.692-3.23c0.229-0.158,0.472-0.297,0.732-0.411l4.105-1.792l2.901,4.709
			c0.286,0.465,0.76,0.78,1.299,0.865c0.097,0.015,0.194,0.023,0.291,0.023c0.441,0,0.871-0.156,1.211-0.447l1.838-1.569v15.959
			c0,0.533,0.432,0.965,0.965,0.965c0.533,0,0.965-0.432,0.965-0.965V50.337l1.838,1.569c0.341,0.291,0.77,0.447,1.211,0.447
			c0.097,0,0.194-0.008,0.291-0.023c0.539-0.085,1.013-0.4,1.299-0.865l2.901-4.709l4.105,1.792c0.26,0.113,0.503,0.253,0.732,0.411
			l-2.692,3.23c-1.088,1.306-1.688,2.962-1.688,4.662v9.445c0,0.533,0.432,0.965,0.965,0.965c0.533,0,0.965-0.432,0.965-0.965V56.85
			c0-1.25,0.441-2.467,1.241-3.427l2.532-3.038c0.423,0.723,0.648,1.563,0.612,2.429l-0.57,13.44
			c-0.023,0.532,0.391,0.982,0.923,1.005c0.014,0.001,0.028,0.001,0.042,0.001c0.514,0,0.941-0.405,0.963-0.924l0.57-13.44
			C132.598,50.284,131.062,47.826,128.665,46.779z M115.283,11.585c2.052,0,3.784,1.309,4.296,3.083
			c-1.332-0.503-2.781-0.779-4.296-0.779c-1.515,0-2.964,0.276-4.296,0.779C111.499,12.894,113.231,11.585,115.283,11.585z
			 M107.366,33.467c-0.17-0.926-1.029-1.599-1.953-1.531c-0.082,0.006-0.167-0.001-0.252-0.021
			c-0.368-0.087-0.645-0.489-0.645-0.935v-0.693c0-0.447,0.299-0.851,0.681-0.918c0.322-0.057,0.63,0.062,0.825,0.316
			c0.177,0.231,0.413,0.396,0.683,0.478c0.395,0.119,0.831,0.049,1.166-0.187c0.594-0.419,1.119-0.93,1.561-1.519
			c0.32-0.426,0.234-1.031-0.192-1.35c-0.426-0.32-1.031-0.234-1.351,0.192c-0.219,0.291-0.465,0.556-0.736,0.791
			c-0.413-0.353-0.919-0.574-1.456-0.641c-0.185-0.727-0.279-1.47-0.279-2.217c0-5.191,4.426-9.414,9.865-9.414
			c5.44,0,9.865,4.223,9.865,9.414c0,0.746-0.094,1.487-0.278,2.213c-0.254,0.02-0.512,0.062-0.751,0.124l-0.725-0.596
			c-0.364-0.3-0.823-0.45-1.287-0.422c-1.418,0.084-8.679,0.276-12.405-4.183c-0.342-0.409-0.95-0.463-1.359-0.122
			c-0.409,0.342-0.463,0.95-0.122,1.359c1.837,2.199,4.532,3.686,8.01,4.42c2.663,0.562,5.029,0.507,5.957,0.454l1.131,0.93
			c0.311,0.256,0.748,0.292,1.097,0.089c0.164-0.089,0.712-0.174,0.951-0.127c0.39,0.078,0.684,0.467,0.684,0.905v0.703
			c0,0.446-0.277,0.848-0.645,0.935c-0.085,0.02-0.17,0.028-0.252,0.021c-0.924-0.067-1.783,0.605-1.953,1.531
			c-0.702,3.821-4.031,6.594-7.917,6.594C111.397,40.061,108.068,37.288,107.366,33.467z M111.283,50.391l-2.901-4.71l1.486-1.486
			l3.995,3.995L111.283,50.391z M115.283,46.881l-3.548-3.548v-1.996c1.108,0.422,2.304,0.652,3.548,0.652
			c1.243,0,2.44-0.231,3.548-0.652v1.996L115.283,46.881z M119.283,50.391l-2.58-2.201l3.995-3.995l1.486,1.486L119.283,50.391z"/>
	</g>
</g>
<g>
	<g>
		<path fill="#108ACF" d="M111.673,56.306h-2.707c-0.533,0-0.965,0.432-0.965,0.965c0,0.533,0.432,0.965,0.965,0.965h2.707
			c0.533,0,0.965-0.432,0.965-0.965C112.638,56.738,112.206,56.306,111.673,56.306z"/>
	</g>
</g>
</svg>
