<?xml version="1.0" encoding="utf-8"?>
<!-- Generator: Adobe Illustrator 17.0.1, SVG Export Plug-In . SVG Version: 6.00 Build 0)  -->
<!DOCTYPE svg PUBLIC "-//W3C//DTD SVG 1.1//EN" "http://www.w3.org/Graphics/SVG/1.1/DTD/svg11.dtd">
<svg version="1.1" id="Capa_1" xmlns="http://www.w3.org/2000/svg" xmlns:xlink="http://www.w3.org/1999/xlink" x="0px" y="0px"
	 width="55px" height="65px" viewBox="103.5 6 55 65" enable-background="new 103.5 6 55 65" xml:space="preserve">
<g>
	<g>
		<path fill="#108ACF" d="M124.667,10.812c-2.209,0-4.005,1.797-4.005,4.005c0,2.209,1.797,4.005,4.005,4.005
			c2.209,0,4.005-1.797,4.005-4.005C128.673,12.609,126.876,10.812,124.667,10.812z M124.667,16.931
			c-1.165,0-2.113-0.948-2.113-2.113s0.948-2.113,2.113-2.113c1.165,0,2.113,0.948,2.113,2.113S125.833,16.931,124.667,16.931z"/>
	</g>
</g>
<g>
	<g>
		<path fill="#108ACF" d="M113.832,10.812c-2.209,0-4.005,1.797-4.005,4.005c0,2.209,1.797,4.005,4.005,4.005
			s4.005-1.797,4.005-4.005C117.838,12.609,116.041,10.812,113.832,10.812z M113.832,16.931c-1.165,0-2.113-0.948-2.113-2.113
			s0.948-2.113,2.113-2.113c1.165,0,2.113,0.948,2.113,2.113S114.997,16.931,113.832,16.931z"/>
	</g>
</g>
<g>
	<g>
		<path fill="#108ACF" d="M148.569,10.812h-10.882c-1.189,0-2.157,0.968-2.157,2.157v3.697c0,1.189,0.968,2.157,2.157,2.157h10.882
			c1.189,0,2.157-0.968,2.157-2.157v-3.697C150.726,11.78,149.758,10.812,148.569,10.812z M148.834,16.666
			c0,0.146-0.119,0.265-0.265,0.265h-10.882c-0.146,0-0.265-0.119-0.265-0.265v-3.697c0-0.146,0.119-0.265,0.265-0.265h10.882
			c0.146,0,0.265,0.119,0.265,0.265V16.666z"/>
	</g>
</g>
<g>
	<g>
		<path fill="#108ACF" d="M131.041,25.636c-3.881,0-7.553,1.251-10.619,3.619c-0.414,0.319-0.49,0.913-0.171,1.327
			c0.319,0.414,0.914,0.49,1.327,0.171c2.732-2.109,6.004-3.224,9.462-3.224c8.546,0,15.498,6.952,15.498,15.498
			s-6.952,15.498-15.498,15.498s-15.498-6.953-15.498-15.498c0-3.557,1.236-7.032,3.48-9.784c0.33-0.405,0.269-1.001-0.136-1.331
			s-1.001-0.269-1.331,0.135c-2.518,3.089-3.905,6.989-3.905,10.98c0,9.589,7.801,17.39,17.39,17.39
			c9.589,0,17.39-7.801,17.39-17.39S140.63,25.636,131.041,25.636z"/>
	</g>
</g>
<g>
	<g>
		<path fill="#108ACF" d="M158.576,63.498V13.526c0-4.009-3.261-7.271-7.27-7.271h-40.529c-4.009,0-7.27,3.262-7.27,7.271v50.046
			c0,4.009,3.261,7.27,7.27,7.27h40.529c3.973,0,7.21-3.204,7.267-7.163C158.577,63.645,158.578,63.523,158.576,63.498z
			 M156.684,62.626h-7.833c-0.522,0-0.946,0.424-0.946,0.946c0,0.523,0.424,0.946,0.946,0.946h7.749
			c-0.448,2.516-2.652,4.432-5.295,4.432h-40.529c-2.643,0-4.846-1.916-5.295-4.432h39.584c0.522,0,0.946-0.424,0.946-0.946
			s-0.424-0.946-0.946-0.946h-39.668V23.38h51.285V62.626z M156.684,21.488h-51.285v-7.962c0-2.966,2.413-5.379,5.378-5.379h40.529
			c2.965,0,5.378,2.413,5.378,5.379V21.488z"/>
	</g>
</g>
<g>
	<g>
		<path fill="#108ACF" d="M131.041,30.034c-7.164,0-12.992,5.828-12.992,12.992c0,0.63,0.045,1.261,0.135,1.874
			c0,0.001,0,0.001,0,0.001c0.442,3.06,1.975,5.871,4.316,7.915c2.365,2.065,5.398,3.202,8.541,3.202s6.176-1.137,8.541-3.202
			c2.341-2.044,3.874-4.854,4.316-7.915c0-0.001,0-0.001,0-0.002c0.089-0.613,0.135-1.243,0.135-1.874
			C144.033,35.862,138.205,30.034,131.041,30.034z M138.338,51.392c-2.02,1.764-4.611,2.735-7.297,2.735
			c-2.685,0-5.276-0.971-7.296-2.735c-1.854-1.618-3.114-3.798-3.59-6.188l0.583-0.397c0.975-0.663,2.294-0.664,3.27,0
			c1.611,1.096,3.787,1.096,5.398,0c0.973-0.662,2.296-0.662,3.27,0c1.611,1.096,3.787,1.096,5.399,0
			c0.977-0.665,2.292-0.665,3.269,0l0.583,0.397C141.452,47.594,140.191,49.773,138.338,51.392z M142.141,43.073
			c-0.007-0.004-0.014-0.007-0.021-0.011c-0.508-0.295-1.063-0.486-1.641-0.587c-0.723-0.127-1.484-0.068-2.184,0.148
			c-0.457,0.141-0.891,0.351-1.286,0.62c-0.976,0.664-2.295,0.663-3.27,0c-0.8-0.544-1.733-0.832-2.699-0.832
			c-0.96,0-1.906,0.292-2.699,0.832c-0.977,0.665-2.293,0.664-3.27,0c-0.8-0.544-1.733-0.832-2.699-0.832
			c-0.838,0-1.688,0.226-2.411,0.651c-0.007,0.004-0.014,0.007-0.02,0.011c0-0.016,0-0.031,0-0.046c0-6.12,4.98-11.1,11.1-11.1
			c6.121,0,11.1,4.98,11.1,11.1C142.141,43.042,142.141,43.057,142.141,43.073z"/>
	</g>
</g>
</svg>
