<?xml version="1.0" encoding="utf-8"?>
<!-- Generator: Adobe Illustrator 17.0.1, SVG Export Plug-In . SVG Version: 6.00 Build 0)  -->
<!DOCTYPE svg PUBLIC "-//W3C//DTD SVG 1.1//EN" "http://www.w3.org/Graphics/SVG/1.1/DTD/svg11.dtd">
<svg version="1.1" id="OBJECT" xmlns="http://www.w3.org/2000/svg" xmlns:xlink="http://www.w3.org/1999/xlink" x="0px" y="0px"
	 width="20px" height="21px" viewBox="0 0 20 21" enable-background="new 0 0 20 21" xml:space="preserve">
<g>
	<g>
		<path fill="#18B8C4" d="M7.821,20.362L7.821,20.362c-0.786-0.787-0.786-2.061,0-2.846l5.101-5.101
			c1.061-1.061,1.061-2.781,0.001-3.842L7.821,3.471c-0.786-0.785-0.786-2.06,0-2.845l0,0c0.786-0.785,2.06-0.785,2.845,0
			l8.641,8.641c0.678,0.678,0.678,1.777,0,2.455l-8.64,8.641C9.881,21.148,8.607,21.148,7.821,20.362z"/>
	</g>
	<g>
		<path fill="#18B8C4" d="M0.773,16.36L0.773,16.36c-0.785-0.785-0.785-2.06,0-2.845l1.642-1.642c0.762-0.762,0.762-1.997,0-2.758
			L0.773,7.473c-0.785-0.785-0.785-2.06,0-2.845h0.001c0.785-0.787,2.059-0.787,2.845,0l4.639,4.638
			c0.678,0.678,0.678,1.777,0,2.455L3.619,16.36C2.834,17.145,1.559,17.145,0.773,16.36z"/>
	</g>
</g>
</svg>
