<?xml version="1.0" encoding="utf-8"?>
<!-- Generator: Adobe Illustrator 17.0.1, SVG Export Plug-In . SVG Version: 6.00 Build 0)  -->
<!DOCTYPE svg PUBLIC "-//W3C//DTD SVG 1.1//EN" "http://www.w3.org/Graphics/SVG/1.1/DTD/svg11.dtd">
<svg version="1.1" id="Capa_1" xmlns="http://www.w3.org/2000/svg" xmlns:xlink="http://www.w3.org/1999/xlink" x="0px" y="0px"
	 width="63px" height="63px" viewBox="99.5 7 63 63" enable-background="new 99.5 7 63 63" xml:space="preserve">
<g>
	<g>
		<path fill="#108ACF" d="M118.444,24.864h-5.904c-0.679,0-1.23,0.551-1.23,1.23v6.888c0,0.679,0.551,1.23,1.23,1.23h5.904
			c0.679,0,1.23-0.551,1.23-1.23v-6.888C119.674,25.414,119.124,24.864,118.444,24.864z M117.214,31.752h-3.444v-4.428h3.444V31.752
			z"/>
	</g>
</g>
<g>
	<g>
		<path fill="#108ACF" d="M118.444,38.64h-5.904c-0.679,0-1.23,0.551-1.23,1.23v6.888c0,0.679,0.551,1.23,1.23,1.23h5.904
			c0.679,0,1.23-0.551,1.23-1.23V39.87C119.674,39.191,119.124,38.64,118.444,38.64z M117.214,45.529h-3.444V41.1h3.444V45.529z"/>
	</g>
</g>
<g>
	<g>
		<path fill="#108ACF" d="M118.444,52.417h-5.904c-0.679,0-1.23,0.551-1.23,1.23v6.888c0,0.679,0.551,1.23,1.23,1.23h5.904
			c0.679,0,1.23-0.551,1.23-1.23v-6.888C119.674,52.968,119.124,52.417,118.444,52.417z M117.214,59.305h-3.444v-4.428h3.444V59.305
			z"/>
	</g>
</g>
<g>
	<g>
		<path fill="#108ACF" d="M150.546,52.417h-5.904c-0.679,0-1.23,0.551-1.23,1.23v6.888c0,0.679,0.551,1.23,1.23,1.23h5.904
			c0.679,0,1.23-0.551,1.23-1.23v-6.888C151.776,52.968,151.226,52.417,150.546,52.417z M149.316,59.305h-3.444v-4.428h3.444V59.305
			z"/>
	</g>
</g>
<g>
	<g>
		<path fill="#108ACF" d="M129.145,24.864h-5.904c-0.679,0-1.23,0.551-1.23,1.23v6.888c0,0.679,0.551,1.23,1.23,1.23h5.904
			c0.679,0,1.23-0.551,1.23-1.23v-6.888C130.375,25.414,129.824,24.864,129.145,24.864z M127.915,31.752h-3.444v-4.428h3.444V31.752
			z"/>
	</g>
</g>
<g>
	<g>
		<path fill="#108ACF" d="M139.845,24.864h-5.904c-0.679,0-1.23,0.551-1.23,1.23v6.888c0,0.679,0.551,1.23,1.23,1.23h5.904
			c0.679,0,1.23-0.551,1.23-1.23v-6.888C141.075,25.414,140.525,24.864,139.845,24.864z M138.615,31.752h-3.444v-4.428h3.444V31.752
			z"/>
	</g>
</g>
<g>
	<g>
		<path fill="#108ACF" d="M129.145,38.64h-5.904c-0.679,0-1.23,0.551-1.23,1.23v6.888c0,0.679,0.551,1.23,1.23,1.23h5.904
			c0.679,0,1.23-0.551,1.23-1.23V39.87C130.375,39.191,129.824,38.64,129.145,38.64z M127.915,45.529h-3.444V41.1h3.444V45.529z"/>
	</g>
</g>
<g>
	<g>
		<path fill="#108ACF" d="M139.845,38.64h-5.904c-0.679,0-1.23,0.551-1.23,1.23v6.888c0,0.679,0.551,1.23,1.23,1.23h5.904
			c0.679,0,1.23-0.551,1.23-1.23V39.87C141.075,39.191,140.525,38.64,139.845,38.64z M138.615,45.529h-3.444V41.1h3.444V45.529z"/>
	</g>
</g>
<g>
	<g>
		<path fill="#108ACF" d="M150.546,24.864h-5.904c-0.679,0-1.23,0.551-1.23,1.23v6.888c0,0.679,0.551,1.23,1.23,1.23h5.904
			c0.679,0,1.23-0.551,1.23-1.23v-6.888C151.776,25.414,151.226,24.864,150.546,24.864z M149.316,31.752h-3.444v-4.428h3.444V31.752
			z"/>
	</g>
</g>
<g>
	<g>
		<path fill="#108ACF" d="M150.546,38.64h-5.904c-0.679,0-1.23,0.551-1.23,1.23v6.888c0,0.679,0.551,1.23,1.23,1.23h5.904
			c0.679,0,1.23-0.551,1.23-1.23V39.87C151.776,39.191,151.226,38.64,150.546,38.64z M149.316,45.529h-3.444V41.1h3.444V45.529z"/>
	</g>
</g>
<g>
	<g>
		<path fill="#108ACF" d="M161.26,67.519h-4.614V19.8c0-0.679-0.551-1.23-1.23-1.23h-6.827v-4.436c0-0.679-0.551-1.23-1.23-1.23
			h-6.764V8.23c0-0.679-0.551-1.23-1.23-1.23h-16.729c-0.679,0-1.23,0.551-1.23,1.23v4.674h-6.764c-0.679,0-1.23,0.551-1.23,1.23
			v4.436h-6.827c-0.679,0-1.23,0.551-1.23,1.23v47.719h-4.614c-0.679,0-1.23,0.551-1.23,1.23c0,0.679,0.551,1.23,1.23,1.23h60.519
			c0.679,0,1.23-0.551,1.23-1.23C162.49,68.07,161.939,67.519,161.26,67.519z M123.866,9.46h14.269v3.444h-14.269V9.46z
			 M136.166,67.519h-8.511l8.511-8.511V67.519z M136.166,55.537c-0.027,0.023-0.054,0.047-0.08,0.073l-10.252,10.252v-5.213
			l7.89-7.89h2.443V55.537z M125.834,57.169v-4.411h4.411L125.834,57.169z M154.185,67.519h-8.239h-7.32V52.758h0.431
			c0.679,0,1.23-0.551,1.23-1.23c0-0.679-0.551-1.23-1.23-1.23h-16.114c-0.679,0-1.23,0.551-1.23,1.23c0,0.679,0.551,1.23,1.23,1.23
			h0.431v14.761h-15.559V21.03h13.655c0.679,0,1.23-0.551,1.23-1.23c0-0.679-0.551-1.23-1.23-1.23h-5.597v-3.206h30.256v3.206
			h-14.941c-0.679,0-1.23,0.551-1.23,1.23c0,0.679,0.551,1.23,1.23,1.23h22.998C154.185,21.03,154.185,67.519,154.185,67.519z"/>
	</g>
</g>
<g>
	<g>
		<path fill="#108ACF" d="M127.062,18.868c-0.229-0.229-0.546-0.36-0.87-0.36s-0.641,0.132-0.87,0.36
			c-0.229,0.229-0.36,0.546-0.36,0.87c0,0.324,0.132,0.641,0.36,0.87c0.229,0.23,0.546,0.36,0.87,0.36s0.641-0.13,0.87-0.36
			c0.229-0.229,0.36-0.546,0.36-0.87C127.423,19.414,127.291,19.097,127.062,18.868z"/>
	</g>
</g>
</svg>
