<?xml version="1.0" encoding="utf-8"?>
<!-- Generator: Adobe Illustrator 17.0.1, SVG Export Plug-In . SVG Version: 6.00 Build 0)  -->
<!DOCTYPE svg PUBLIC "-//W3C//DTD SVG 1.1//EN" "http://www.w3.org/Graphics/SVG/1.1/DTD/svg11.dtd">
<svg version="1.1" id="Слой_1" xmlns="http://www.w3.org/2000/svg" xmlns:xlink="http://www.w3.org/1999/xlink" x="0px" y="0px"
	 width="62px" height="62px" viewBox="210 210 62 62" enable-background="new 210 210 62 62" xml:space="preserve">
<path fill="#108ACF" d="M227.003,235.973c-7.144,0-12.956-5.812-12.956-12.956c0-7.144,5.812-12.956,12.956-12.956
	c7.144,0,12.956,5.812,12.956,12.956C239.959,230.161,234.147,235.973,227.003,235.973z M227.003,212.054
	c-6.045,0-10.963,4.918-10.963,10.963c0,6.045,4.918,10.963,10.963,10.963c6.045,0,10.963-4.918,10.963-10.963
	C237.965,216.972,233.048,212.054,227.003,212.054z"/>
<path fill="#108ACF" d="M264.874,228h-3.987c-0.265,0-0.518-0.105-0.705-0.292l-2.379-2.379l-3.295,2.471
	c-0.172,0.129-0.382,0.199-0.597,0.199h-3.987c-0.216,0-0.426-0.07-0.597-0.199l-3.389-2.541l-3.389,2.541
	c-0.172,0.129-0.382,0.199-0.597,0.199h-3.987v-1.993h3.655l3.721-2.79c0.354-0.266,0.841-0.266,1.195,0l3.721,2.79h3.323
	l3.721-2.79c0.396-0.298,0.952-0.259,1.302,0.092l2.698,2.698h3.213l4.783-3.987l-4.783-3.987h-27.544v-1.993h27.905
	c0.234,0,0.46,0.082,0.638,0.231l5.98,4.983c0.227,0.189,0.359,0.47,0.359,0.765c0,0.296-0.132,0.576-0.359,0.766l-5.98,4.983
	C265.333,227.918,265.107,228,264.874,228z"/>
<path fill="#108ACF" d="M223.017,228c-2.748,0-4.983-2.235-4.983-4.983c0-2.748,2.235-4.983,4.983-4.983
	c2.747,0,4.983,2.235,4.983,4.983C228,225.764,225.764,228,223.017,228z M223.017,220.027c-1.649,0-2.99,1.341-2.99,2.99
	c0,1.648,1.341,2.99,2.99,2.99c1.648,0,2.99-1.341,2.99-2.99C226.006,221.368,224.665,220.027,223.017,220.027z"/>
<path fill="#108ACF" d="M233.979,271.85h-15.946c-1.649,0-2.99-1.341-2.99-2.99v-19.932c0-1.649,1.341-2.99,2.99-2.99h15.946
	c1.648,0,2.99,1.341,2.99,2.99v19.932C236.969,270.509,235.628,271.85,233.979,271.85z M218.034,247.932
	c-0.55,0-0.997,0.447-0.997,0.997v19.932c0,0.55,0.447,0.997,0.997,0.997h15.946c0.549,0,0.997-0.447,0.997-0.997v-19.932
	c0-0.55-0.447-0.997-0.997-0.997L218.034,247.932L218.034,247.932z"/>
<path fill="#108ACF" d="M231.986,255.905h-11.959c-0.55,0-0.997-0.446-0.997-0.997v-3.987c0-0.551,0.446-0.997,0.997-0.997h11.959
	c0.55,0,0.997,0.446,0.997,0.997v3.987C232.982,255.459,232.536,255.905,231.986,255.905z M221.023,253.912h9.966v-1.994h-9.966
	V253.912z"/>
<path fill="#108ACF" d="M224.013,267.864h-3.987c-0.55,0-0.997-0.446-0.997-0.997v-7.973c0-0.551,0.446-0.996,0.997-0.996h3.987
	c0.55,0,0.997,0.446,0.997,0.996v7.973C225.01,267.418,224.564,267.864,224.013,267.864z M221.023,265.871h1.993v-5.98h-1.993
	V265.871z"/>
<path fill="#108ACF" d="M232.982,267.864h-4.983c-0.55,0-0.997-0.446-0.997-0.997v-3.987c0-0.551,0.446-0.997,0.997-0.997h2.99
	v-1.993h-3.987v-1.993h4.983c0.55,0,0.997,0.446,0.997,0.997v3.987c0,0.551-0.446,0.997-0.997,0.997h-2.99v1.993h3.987
	L232.982,267.864L232.982,267.864z"/>
<path fill="#108ACF" d="M254.908,267.864h-3.987c-0.551,0-0.997-0.446-0.997-0.997v-7.973c0-0.551,0.446-0.996,0.997-0.996h3.987
	c0.551,0,0.997,0.446,0.997,0.996v7.973C255.904,267.418,255.459,267.864,254.908,267.864z M251.918,265.871h1.993v-5.98h-1.993
	V265.871z"/>
<path fill="#108ACF" d="M263.877,267.864h-4.983c-0.551,0-0.997-0.446-0.997-0.997v-3.987c0-0.551,0.446-0.997,0.997-0.997h2.99
	v-1.993h-3.987v-1.993h4.983c0.551,0,0.997,0.446,0.997,0.997v3.987c0,0.551-0.446,0.997-0.997,0.997h-2.99v1.993h3.987
	L263.877,267.864L263.877,267.864z"/>
<path fill="#108ACF" d="M227.003,246.935h-1.993c0-2.747-2.235-4.983-4.983-4.983c-5.495,0-9.966-4.47-9.966-9.966v-1.993
	c0-4.396,3.577-7.973,7.973-7.973h0.997v1.994h-0.997c-3.297,0-5.98,2.682-5.98,5.98v1.993c0,4.396,3.576,7.973,7.973,7.973
	C223.874,239.959,227.003,243.089,227.003,246.935z"/>
<path fill="#108ACF" d="M268.86,271.85h-29.898v-1.993h29.898c0.55,0,0.996-0.447,0.996-0.997v-7.077
	c-2.272-0.463-3.987-2.476-3.987-4.883c0-2.407,1.715-4.419,3.987-4.882v-7.077c0-0.55-0.447-0.997-0.996-0.997h-37.871
	c-0.549,0-0.997,0.447-0.997,0.997v1.994H228v-1.994c0-1.648,1.341-2.99,2.99-2.99h37.871c1.648,0,2.99,1.341,2.99,2.99v7.973
	c0,0.551-0.446,0.997-0.996,0.997c-1.648,0-2.99,1.341-2.99,2.99c0,1.648,1.342,2.99,2.99,2.99c0.551,0,0.996,0.446,0.996,0.997
	v7.973C271.85,270.509,270.509,271.85,268.86,271.85z"/>
<path fill="#108ACF" d="M235.972,247.932h34.881v1.994h-34.881V247.932z"/>
<path fill="#108ACF" d="M238.962,251.918h1.993v1.994h-1.993V251.918z"/>
<path fill="#108ACF" d="M242.948,251.918h1.994v1.994h-1.994V251.918z"/>
<path fill="#108ACF" d="M246.935,251.918h1.993v1.994h-1.993V251.918z"/>
<path fill="#108ACF" d="M250.921,251.918h1.993v1.994h-1.993V251.918z"/>
<path fill="#108ACF" d="M254.908,251.918h1.993v1.994h-1.993V251.918z"/>
<path fill="#108ACF" d="M258.894,251.918h1.993v1.994h-1.993V251.918z"/>
<path fill="#108ACF" d="M262.881,251.918h1.993v1.994h-1.993V251.918z"/>
</svg>
