<?xml version="1.0" encoding="utf-8"?>
<!-- Generator: Adobe Illustrator 17.0.1, SVG Export Plug-In . SVG Version: 6.00 Build 0)  -->
<!DOCTYPE svg PUBLIC "-//W3C//DTD SVG 1.1//EN" "http://www.w3.org/Graphics/SVG/1.1/DTD/svg11.dtd">
<svg version="1.1" id="Capa_1" xmlns="http://www.w3.org/2000/svg" xmlns:xlink="http://www.w3.org/1999/xlink" x="0px" y="0px"
	 width="14px" height="14px" viewBox="124 31.5 14 14" enable-background="new 124 31.5 14 14" xml:space="preserve">
<g>
	<g>
		<path fill="#FFFFFF" d="M134.642,40.763c-0.456-0.45-1.026-0.45-1.479,0c-0.346,0.343-0.692,0.686-1.032,1.034
			c-0.093,0.096-0.171,0.116-0.285,0.052c-0.224-0.122-0.462-0.221-0.677-0.354c-1.002-0.631-1.842-1.441-2.586-2.354
			c-0.369-0.453-0.697-0.939-0.927-1.485c-0.046-0.11-0.038-0.183,0.052-0.273c0.346-0.334,0.683-0.677,1.023-1.02
			c0.474-0.477,0.474-1.034-0.003-1.514c-0.27-0.273-0.54-0.54-0.811-0.814c-0.279-0.279-0.555-0.561-0.837-0.837
			c-0.456-0.445-1.026-0.445-1.479,0.003c-0.349,0.343-0.683,0.694-1.037,1.032c-0.328,0.311-0.494,0.692-0.529,1.136
			c-0.055,0.724,0.122,1.406,0.372,2.072c0.511,1.377,1.29,2.601,2.234,3.722c1.276,1.517,2.798,2.717,4.579,3.583
			c0.802,0.389,1.633,0.689,2.537,0.738c0.622,0.035,1.162-0.122,1.595-0.607c0.296-0.331,0.631-0.633,0.944-0.95
			c0.465-0.471,0.468-1.04,0.006-1.505C135.752,41.867,135.197,41.315,134.642,40.763z"/>
		<path fill="#FFFFFF" d="M134.087,38.447l1.072-0.183c-0.169-0.985-0.633-1.877-1.34-2.586c-0.747-0.747-1.691-1.217-2.731-1.363
			l-0.151,1.078c0.805,0.113,1.537,0.477,2.115,1.055C133.599,36.995,133.956,37.686,134.087,38.447z"/>
		<path fill="#FFFFFF" d="M135.764,33.787c-1.238-1.238-2.804-2.019-4.533-2.261l-0.151,1.078c1.494,0.209,2.848,0.886,3.917,1.953
			c1.014,1.014,1.679,2.295,1.921,3.705l1.072-0.183C137.708,36.445,136.938,34.963,135.764,33.787z"/>
	</g>
</g>
</svg>
