<?xml version="1.0" encoding="utf-8"?>
<!-- Generator: Adobe Illustrator 17.0.1, SVG Export Plug-In . SVG Version: 6.00 Build 0)  -->
<!DOCTYPE svg PUBLIC "-//W3C//DTD SVG 1.1//EN" "http://www.w3.org/Graphics/SVG/1.1/DTD/svg11.dtd">
<svg version="1.1" id="Layer_1" xmlns="http://www.w3.org/2000/svg" xmlns:xlink="http://www.w3.org/1999/xlink" x="0px" y="0px"
	 width="22px" height="20px" viewBox="120 28.5 22 20" enable-background="new 120 28.5 22 20" xml:space="preserve">
<g id="XMLID_496_">
	<path id="XMLID_497_" fill="#31A8E0" d="M120.434,38.123l5.04,1.881l1.951,6.274c0.125,0.402,0.616,0.55,0.942,0.284l2.809-2.29
		c0.294-0.24,0.714-0.252,1.022-0.029l5.067,3.679c0.349,0.254,0.843,0.062,0.931-0.359l3.712-17.855
		c0.096-0.46-0.357-0.845-0.795-0.675l-20.684,7.979C119.918,37.209,119.922,37.931,120.434,38.123z M127.111,39.003l9.85-6.067
		c0.177-0.109,0.359,0.131,0.207,0.272l-8.129,7.556c-0.286,0.266-0.47,0.622-0.522,1.008l-0.277,2.052
		c-0.037,0.274-0.422,0.301-0.497,0.036l-1.065-3.742C126.555,39.692,126.733,39.236,127.111,39.003z"/>
</g>
</svg>
