<?xml version="1.0" encoding="utf-8"?>
<!-- Generator: Adobe Illustrator 17.0.1, SVG Export Plug-In . SVG Version: 6.00 Build 0)  -->
<!DOCTYPE svg PUBLIC "-//W3C//DTD SVG 1.1//EN" "http://www.w3.org/Graphics/SVG/1.1/DTD/svg11.dtd">
<svg version="1.1" id="Layer_1" xmlns="http://www.w3.org/2000/svg" xmlns:xlink="http://www.w3.org/1999/xlink" x="0px" y="0px"
	 width="26px" height="14px" viewBox="118 31.5 26 14" enable-background="new 118 31.5 26 14" xml:space="preserve">
<path fill="#436EAB" d="M140.135,40.383c0.84,0.793,1.727,1.54,2.481,2.413c0.333,0.388,0.648,0.789,0.889,1.239
	c0.342,0.64,0.032,1.345-0.561,1.383l-3.69-0.002c-0.952,0.076-1.711-0.294-2.35-0.923c-0.511-0.503-0.984-1.039-1.475-1.559
	c-0.201-0.213-0.412-0.413-0.664-0.571c-0.504-0.316-0.941-0.219-1.229,0.289c-0.293,0.517-0.36,1.089-0.389,1.665
	c-0.04,0.84-0.302,1.061-1.175,1.1c-1.865,0.085-3.636-0.188-5.281-1.098c-1.45-0.802-2.574-1.935-3.553-3.217
	c-1.905-2.497-3.365-5.24-4.676-8.06c-0.295-0.635-0.079-0.977,0.646-0.989c1.204-0.023,2.408-0.021,3.613-0.002
	c0.489,0.007,0.813,0.278,1.002,0.725c0.651,1.549,1.448,3.022,2.449,4.388c0.266,0.364,0.538,0.727,0.925,0.983
	c0.428,0.283,0.754,0.189,0.955-0.272c0.128-0.292,0.184-0.607,0.212-0.92c0.095-1.077,0.108-2.152-0.059-3.226
	c-0.103-0.67-0.493-1.104-1.184-1.23c-0.353-0.065-0.3-0.192-0.129-0.386c0.297-0.336,0.576-0.545,1.132-0.545h4.171
	c0.657,0.125,0.802,0.411,0.892,1.049l0.004,4.48c-0.007,0.247,0.128,0.981,0.588,1.145c0.369,0.117,0.612-0.169,0.833-0.395
	c0.999-1.025,1.711-2.236,2.348-3.49c0.283-0.551,0.526-1.124,0.761-1.696c0.174-0.425,0.448-0.634,0.943-0.624l4.014,0.003
	c0.119,0,0.239,0.002,0.355,0.021c0.676,0.111,0.862,0.393,0.653,1.032c-0.329,1.002-0.97,1.837-1.596,2.676
	c-0.669,0.896-1.385,1.761-2.049,2.662C139.329,39.254,139.378,39.669,140.135,40.383L140.135,40.383z"/>
</svg>
